<?xml version="1.0" standalone="no"?>
<!DOCTYPE svg PUBLIC "-//W3C//DTD SVG 20010904//EN"
 "http://www.w3.org/TR/2001/REC-SVG-20010904/DTD/svg10.dtd">
<svg version="1.0" xmlns="http://www.w3.org/2000/svg"
 width="837.000000pt" height="874.000000pt" viewBox="0 0 837.000000 874.000000"
 preserveAspectRatio="xMidYMid meet">

<g transform="translate(0.000000,874.000000) scale(0.100000,-0.100000)"
fill="#000000" stroke="none">
<path d="M3230 8689 c-791 -87 -1487 -424 -2025 -980 -525 -542 -839 -1221
-915 -1978 -6 -67 -10 -816 -10 -2157 l0 -2054 140 0 140 0 0 -303 0 -304 293
-5 c218 -3 4550 -2 4722 2 17 1 165 -1 330 -3 165 -2 380 -2 478 0 l177 4 0
304 0 305 140 0 140 0 -2 2069 -3 2070 38 -40 c32 -33 44 -39 80 -39 71 0 105
35 113 117 5 59 26 91 71 110 42 17 69 12 119 -22 44 -30 78 -32 120 -6 47 28
60 70 44 137 -12 48 -11 59 3 90 25 52 75 70 145 53 66 -16 98 -6 130 41 29
43 25 80 -13 136 -21 31 -26 47 -22 78 8 59 43 87 119 98 80 10 118 45 118
110 0 36 -6 47 -45 84 -57 53 -70 87 -53 140 11 33 22 43 73 69 46 23 64 39
79 68 16 34 17 42 4 75 -11 30 -25 43 -73 67 -102 51 -120 126 -46 195 63 59
76 102 46 160 -19 37 -43 50 -90 50 -54 0 -101 26 -120 67 -20 43 -15 77 20
128 29 44 31 64 9 110 -22 47 -75 71 -124 56 -81 -24 -134 -4 -160 59 -11 25
-11 41 0 85 10 43 10 60 0 84 -27 66 -106 83 -174 37 -44 -30 -86 -33 -125
-10 -38 22 -50 46 -56 105 -6 63 -18 85 -55 104 -54 28 -88 20 -141 -35 -26
-27 -59 -52 -73 -56 -57 -14 -120 25 -136 86 -14 52 -51 80 -105 80 -54 0 -91
-28 -105 -80 -16 -61 -79 -100 -136 -86 -14 4 -47 29 -73 56 -53 55 -87 63
-141 35 -37 -19 -48 -40 -54 -103 -6 -59 -19 -83 -57 -106 -39 -23 -72 -20
-136 14 -35 19 -64 28 -77 25 -69 -19 -102 -65 -92 -126 l6 -39 -92 73 c-391
305 -790 500 -1261 617 -271 67 -399 82 -732 85 -159 2 -328 -1 -375 -6z m675
-345 c72 -8 138 -17 148 -20 18 -6 19 -20 15 -239 -1 -129 1 -227 5 -219 4 8
19 14 33 14 20 0 24 -4 19 -22 -7 -31 -53 -255 -72 -353 -9 -44 -20 -84 -25
-90 -5 -5 -47 -15 -94 -21 -84 -10 -85 -10 -79 10 4 12 7 31 8 43 1 12 5 19 9
17 7 -5 10 3 7 22 0 4 4 10 9 13 13 9 106 220 100 227 -3 3 -68 10 -144 15
-77 5 -161 14 -187 19 -26 6 -83 10 -125 10 -42 0 -124 4 -182 10 -58 5 -154
12 -215 15 -60 4 -111 7 -111 8 -1 1 -5 113 -9 250 l-7 247 23 1 c22 0 22 1 4
8 -15 6 -4 11 45 19 240 41 545 47 825 16z m2695 -39 c20 -10 33 -28 41 -56 7
-22 27 -53 46 -69 28 -25 42 -30 85 -30 48 0 53 3 99 50 42 43 54 50 88 50 52
0 91 -43 91 -101 0 -114 113 -171 208 -106 51 36 86 35 124 -3 28 -29 30 -34
23 -78 -16 -104 -3 -145 58 -183 32 -20 37 -20 134 -4 38 7 45 5 73 -23 37
-37 38 -72 5 -127 -62 -100 -8 -205 104 -205 58 0 105 -43 105 -95 0 -32 -7
-44 -41 -74 -50 -45 -63 -69 -63 -120 0 -52 42 -103 99 -120 28 -8 46 -21 56
-41 32 -63 9 -111 -65 -139 -58 -21 -90 -68 -90 -129 0 -41 5 -50 43 -86 61
-57 71 -79 57 -121 -15 -44 -44 -65 -93 -65 -84 0 -137 -51 -137 -132 0 -31 7
-54 25 -78 27 -37 31 -69 13 -103 -22 -42 -38 -47 -128 -41 -82 6 -87 5 -117
-20 -42 -35 -58 -83 -44 -133 17 -60 13 -88 -15 -117 -35 -34 -81 -34 -130 -1
-89 60 -204 5 -204 -98 0 -52 -15 -84 -49 -102 -49 -25 -70 -19 -123 36 -48
49 -49 53 -58 132 -7 56 -6 84 1 94 17 19 35 16 52 -9 12 -19 18 -21 34 -12
10 6 18 17 19 25 2 35 5 39 25 39 12 0 27 -7 34 -17 18 -25 45 -9 45 27 0 36
21 48 55 30 33 -18 57 -7 50 23 -9 32 19 56 46 39 35 -22 49 -15 49 27 0 43
19 58 50 39 29 -19 53 5 37 39 -9 21 -8 27 7 39 14 10 24 10 39 3 29 -16 53
10 37 41 -18 33 -5 54 29 47 40 -8 59 14 41 48 -17 32 1 58 36 49 29 -7 43 19
26 47 -14 21 -16 48 -4 50 4 1 17 3 30 4 37 4 48 21 29 43 -26 28 -22 62 7 62
13 0 29 7 36 15 11 13 9 20 -9 38 -29 32 -26 46 14 63 39 16 45 38 14 54 -26
14 -22 53 6 59 19 3 35 18 35 34 0 4 -11 13 -25 19 -16 7 -25 19 -25 34 0 17
7 25 25 30 16 4 25 13 25 25 0 12 -10 23 -25 29 -32 12 -32 39 2 65 29 24 25
41 -13 55 -30 12 -32 45 -3 60 26 15 21 43 -10 50 -13 3 -29 13 -35 23 -9 14
-6 21 13 36 30 23 22 48 -16 53 -33 4 -44 39 -19 63 22 22 9 45 -25 45 -34 0
-48 23 -31 51 22 34 15 49 -23 49 -41 0 -54 20 -35 55 17 31 4 48 -30 41 -39
-7 -57 15 -41 50 15 35 5 47 -34 40 -39 -8 -62 12 -46 41 15 29 -1 43 -45 40
-38 -2 -39 -1 -42 33 -4 47 -16 57 -46 40 -37 -19 -59 -7 -51 30 8 36 -14 49
-50 30 -34 -18 -55 -6 -55 30 0 35 -17 39 -56 14 -28 -19 -42 -12 -49 26 -7
36 -26 42 -53 17 -26 -25 -55 -15 -60 21 -5 32 -29 34 -56 5 -26 -28 -42 -24
-56 13 -12 30 -50 33 -57 4 -8 -30 -51 -27 -63 5 -5 14 -16 25 -25 25 -9 0
-20 -11 -25 -25 -12 -32 -55 -35 -63 -5 -7 29 -45 26 -57 -4 -14 -37 -30 -41
-56 -13 -27 29 -51 27 -56 -5 -5 -36 -34 -46 -60 -21 -28 25 -48 20 -48 -12 0
-34 -36 -52 -59 -31 -29 26 -51 20 -51 -14 0 -36 -21 -48 -55 -30 -36 19 -58
6 -50 -30 8 -36 -14 -49 -50 -30 -31 17 -45 6 -45 -35 0 -19 -4 -36 -9 -39
-13 -9 -142 115 -157 151 -22 53 -18 91 15 124 37 36 75 38 120 5 44 -33 79
-39 126 -24 51 17 85 66 85 124 0 61 37 104 91 104 34 0 46 -7 88 -50 46 -47
52 -50 99 -50 63 0 103 30 128 96 26 67 76 89 134 59z m-3617 -72 c4 -38 7
-150 7 -250 l0 -181 -42 5 c-24 2 -49 6 -55 9 -10 2 -13 59 -13 238 0 259 -5
242 66 245 l31 1 6 -67z m1725 -97 c73 -30 143 -61 157 -70 35 -23 42 -65 35
-201 -6 -112 -5 -121 14 -140 11 -11 22 -19 23 -17 22 20 68 -37 59 -74 -9
-33 -58 -77 -69 -61 -5 7 -6 4 -2 -9 6 -23 -8 -33 -55 -41 -13 -2 -26 -6 -28
-8 -2 -1 -5 -71 -8 -154 -3 -101 -1 -151 6 -151 5 0 10 -7 10 -16 0 -8 4 -12
10 -9 11 7 25 -39 16 -54 -10 -15 5 -62 17 -54 5 3 7 1 3 -5 -3 -6 -2 -13 4
-17 6 -4 7 -11 4 -17 -4 -7 -9 -6 -14 2 -5 8 -16 2 -37 -18 l-29 -30 24 -21
c14 -12 22 -24 19 -27 -3 -4 3 -22 13 -42 14 -26 16 -40 9 -53 -5 -11 -13 -18
-17 -18 -21 3 -32 -4 -51 -37 -12 -19 -21 -41 -21 -47 0 -7 -8 -17 -19 -24
-14 -9 -23 -9 -39 3 -19 13 -21 12 -27 -7 -5 -16 -2 -27 13 -38 42 -33 62
-100 32 -108 -16 -4 -17 -8 -7 -31 6 -15 15 -29 19 -32 4 -3 8 -17 10 -32 2
-15 7 -30 10 -33 8 -8 22 44 19 72 -4 42 44 40 55 -2 6 -24 -37 -146 -61 -175
-7 -8 -16 -25 -19 -37 -4 -13 -11 -23 -16 -23 -10 0 -19 -47 -13 -70 3 -13 15
-18 42 -18 l37 -1 57 117 c51 105 58 129 72 232 9 63 23 130 31 149 12 27 13
40 3 62 -9 23 -8 46 4 111 9 46 25 148 37 228 11 80 29 179 40 220 10 41 22
89 25 105 4 17 26 71 50 120 24 50 49 110 55 134 7 24 18 54 25 65 7 12 16 38
19 59 6 33 9 36 26 27 17 -9 18 -27 19 -294 1 -183 -2 -287 -9 -291 -5 -3 -10
-19 -10 -36 0 -29 -11 -38 -85 -65 -18 -6 -18 -8 -2 -11 15 -4 17 -18 17 -109
0 -102 0 -104 -25 -110 -13 -3 -27 -16 -31 -27 -3 -12 -12 -29 -19 -37 -7 -8
-16 -37 -20 -65 -5 -27 -12 -53 -17 -56 -12 -8 -29 -80 -21 -92 3 -5 27 46 54
114 26 67 52 126 58 132 5 5 17 1 30 -12 12 -12 30 -21 41 -21 17 0 20 -7 20
-49 0 -27 3 -64 7 -82 7 -33 7 -33 14 -9 4 14 7 46 8 72 1 64 9 79 35 72 14
-3 30 2 46 16 l24 21 33 -73 c41 -87 146 -389 138 -396 -3 -3 -21 -1 -40 5
-21 7 -37 7 -41 2 -3 -5 -47 -9 -99 -9 l-93 0 -8 63 -8 62 -9 -62 -9 -63 -114
0 -114 0 5 28 c5 23 4 23 -10 -7 -25 -56 -29 -27 -5 44 28 83 20 96 -11 18
-15 -38 -23 -79 -23 -120 -1 -35 -4 -63 -8 -63 -5 0 -8 -5 -8 -11 0 -6 7 -8
16 -5 10 4 18 -1 21 -13 3 -11 16 -27 29 -36 33 -22 33 -69 -1 -91 -27 -18
-35 -47 -10 -38 8 4 15 11 15 16 0 13 31 37 47 38 7 0 10 -7 7 -15 -4 -8 -2
-15 4 -15 5 0 13 8 16 18 13 34 37 72 47 72 5 0 8 -3 8 -7 -1 -5 -1 -20 0 -35
1 -31 15 -36 38 -13 11 12 19 13 28 5 10 -8 19 -8 35 2 17 11 22 11 30 -2 7
-10 5 -18 -5 -26 -9 -6 -12 -19 -8 -34 6 -21 4 -22 -20 -16 -20 5 -27 3 -27
-9 0 -9 -9 -15 -25 -15 -16 0 -25 6 -25 16 0 23 -59 -25 -59 -48 -2 -45 -41 0
-41 46 0 42 -32 32 -54 -17 -11 -23 -22 -45 -24 -49 -2 -5 3 -8 12 -8 22 0 21
-53 -1 -72 -10 -8 -30 -18 -46 -22 -38 -9 -46 17 -17 56 12 16 20 31 18 34 -6
5 -88 -75 -87 -84 4 -28 -3 -40 -20 -35 -15 4 -23 -3 -34 -30 -8 -19 -20 -38
-26 -41 -6 -4 -11 -18 -11 -31 0 -14 -7 -25 -17 -27 -9 -2 -21 -20 -27 -43 -7
-22 -20 -44 -31 -50 -16 -8 -19 -18 -17 -47 3 -33 1 -37 -25 -40 -22 -2 -29
-9 -34 -36 -5 -24 -3 -35 7 -39 19 -7 18 -32 -1 -39 -9 -4 -15 -19 -15 -38 0
-41 -46 -93 -77 -88 -22 3 -23 7 -23 128 0 76 4 124 10 124 6 0 10 7 10 15 0
8 -4 15 -10 15 -6 0 -10 40 -10 100 0 89 2 101 20 112 11 7 20 17 20 23 0 6
-9 16 -20 23 -19 12 -20 23 -20 293 0 209 -3 278 -12 273 -6 -4 -17 1 -25 11
-12 18 -13 18 -13 -3 0 -33 -47 -30 -60 4 -14 35 -13 110 1 137 22 42 59 51
59 15 1 -20 2 -21 11 -6 5 10 16 15 24 12 13 -5 15 36 15 316 0 276 2 329 17
369 15 45 15 50 0 90 -15 36 -17 89 -17 416 0 206 3 375 8 375 4 0 67 -24 140
-54z m-2348 -150 l0 -123 -97 0 c-54 -1 -107 4 -118 10 -11 6 -60 13 -110 16
l-90 6 90 55 c97 59 292 159 313 159 9 1 12 -30 12 -123z m4095 32 c15 -34 59
-36 81 -4 20 32 26 32 39 4 7 -17 18 -23 40 -23 22 0 33 6 40 23 13 29 18 28
32 -8 9 -24 17 -30 42 -30 20 0 34 7 41 20 13 24 30 18 30 -10 0 -38 70 -50
84 -15 9 23 26 18 26 -8 0 -43 53 -65 80 -32 13 16 35 10 24 -6 -3 -5 2 -21
10 -34 17 -25 59 -34 71 -15 12 19 25 10 25 -19 0 -48 26 -59 82 -36 15 6 17
3 12 -22 -4 -21 -1 -35 12 -47 16 -17 28 -17 66 -1 14 6 16 1 11 -33 -5 -34
-2 -42 16 -51 15 -9 26 -9 42 -1 26 15 32 9 21 -21 -5 -13 -7 -32 -4 -41 4
-20 43 -34 67 -24 17 6 21 -19 5 -29 -28 -18 16 -81 50 -70 24 8 34 -9 15 -25
-32 -26 -3 -80 43 -80 24 0 24 -1 9 -18 -32 -36 -15 -82 30 -82 28 0 28 -5 4
-36 -24 -30 -17 -62 18 -77 37 -16 37 -16 13 -33 -33 -23 -29 -63 8 -77 28
-11 41 -27 21 -27 -16 0 -41 -31 -41 -51 0 -11 14 -28 32 -39 l32 -19 -26 -10
c-15 -5 -29 -19 -33 -30 -8 -25 10 -61 30 -61 24 0 17 -14 -15 -32 -36 -20
-41 -61 -10 -78 25 -14 26 -30 1 -30 -41 0 -61 -70 -25 -84 22 -9 16 -26 -9
-26 -44 0 -65 -53 -32 -80 23 -19 18 -30 -15 -30 -42 0 -60 -38 -36 -75 l16
-25 -34 0 c-44 0 -64 -29 -47 -67 15 -33 15 -33 -18 -27 -38 8 -64 -26 -50
-63 12 -33 13 -33 -21 -27 -42 9 -63 -11 -57 -53 6 -34 6 -34 -29 -27 -42 8
-66 -9 -64 -45 3 -41 1 -42 -22 -27 -37 23 -68 5 -68 -39 0 -37 -10 -44 -30
-20 -17 21 -36 19 -61 -6 -13 -13 -18 -27 -14 -40 7 -23 -7 -25 -25 -4 -27 33
-80 12 -80 -32 0 -27 -12 -30 -30 -7 -8 9 -25 14 -44 12 l-30 -3 -12 75 c-17
106 -17 122 2 88 16 -30 54 -38 71 -15 6 7 6 51 0 119 -10 113 -4 138 32 138
9 0 52 -32 96 -71 60 -53 85 -69 104 -67 39 5 37 29 -9 134 -23 52 -40 102
-38 111 7 39 33 37 135 -6 110 -47 137 -49 141 -11 1 19 -15 45 -68 103 -109
121 -97 145 67 129 116 -12 137 -6 131 32 -2 14 -32 38 -95 76 -51 30 -95 63
-99 73 -6 20 21 57 42 57 7 0 53 9 103 21 71 16 91 25 97 41 10 32 -14 46
-124 70 -104 22 -131 39 -118 73 2 7 48 39 101 71 86 51 96 60 93 83 l-3 26
-124 -3 c-128 -4 -141 0 -141 38 0 8 32 51 71 95 71 80 81 107 48 128 -11 7
-41 -2 -111 -33 -99 -43 -124 -47 -141 -18 -8 13 -1 40 33 118 33 77 41 107
33 119 -20 32 -47 22 -126 -49 -123 -110 -147 -97 -130 72 11 99 5 128 -26
128 -23 0 -38 -18 -92 -113 -31 -54 -51 -79 -68 -84 -34 -8 -44 9 -70 126 -23
104 -39 128 -73 110 -11 -6 -24 -42 -39 -110 -22 -98 -37 -129 -62 -129 -22 0
-33 14 -77 90 -52 91 -68 110 -91 110 -30 0 -35 -24 -25 -140 7 -92 7 -114 -5
-121 -28 -18 -50 -7 -126 61 -43 38 -85 70 -94 70 -21 0 -39 -20 -39 -44 -1
-17 -11 -10 -50 34 -40 45 -47 57 -38 73 5 10 7 30 3 44 -5 22 -3 24 12 18 42
-18 61 -17 76 5 8 12 12 31 9 42 -4 18 -2 20 14 14 42 -18 56 -18 75 0 11 10
18 26 16 36 -7 24 8 32 23 13 27 -33 80 -11 80 32 0 26 17 31 26 8 14 -35 84
-23 84 15 0 28 17 34 30 10 7 -13 21 -20 41 -20 25 0 33 6 42 30 14 36 19 37
32 8z m-1495 -67 c5 -11 10 -29 10 -40 0 -11 11 -32 25 -47 13 -14 22 -30 19
-35 -3 -5 2 -9 10 -9 9 0 16 -7 16 -15 0 -28 -30 -3 -75 62 -44 62 -52 83 -38
96 11 12 22 8 33 -12z m190 -46 c19 -23 -5 -95 -31 -95 -10 0 -12 70 -3 94 8
20 18 20 34 1z m-796 -36 c-8 -13 -21 -11 -27 5 -4 10 0 12 14 9 10 -3 16 -9
13 -14z m2221 -21 c2 -7 13 -57 25 -111 17 -75 27 -101 44 -112 38 -25 63 -8
118 84 65 109 66 111 85 104 16 -6 16 -14 -3 -179 -5 -44 -3 -55 15 -73 12
-12 30 -21 41 -21 10 0 58 34 105 75 119 104 130 93 64 -62 -34 -79 -39 -100
-30 -119 18 -41 51 -39 151 5 51 23 98 41 106 41 31 0 22 -26 -33 -88 -87 -98
-98 -118 -85 -147 16 -34 43 -38 157 -25 77 8 100 8 106 -2 11 -18 6 -22 -89
-79 -98 -59 -102 -63 -102 -101 0 -37 26 -52 132 -73 47 -10 92 -21 99 -25 29
-19 -3 -37 -105 -60 -58 -13 -111 -29 -117 -36 -6 -7 -9 -27 -7 -45 3 -29 12
-38 98 -89 52 -30 95 -62 95 -70 0 -16 -22 -17 -168 -9 -69 3 -80 2 -93 -15
-24 -34 -16 -53 61 -142 59 -67 73 -89 65 -100 -13 -14 -11 -15 -134 39 -84
37 -109 37 -133 0 -15 -23 -14 -29 26 -121 22 -53 41 -102 41 -109 0 -30 -27
-20 -88 34 -98 87 -114 96 -145 82 -14 -6 -29 -19 -32 -27 -3 -8 -1 -61 6
-118 15 -142 1 -160 -55 -71 -24 37 -45 94 -70 190 -118 451 -345 888 -644
1246 -63 75 -94 143 -75 162 7 7 37 -14 97 -65 48 -42 96 -76 106 -76 11 0 29
9 41 21 18 18 20 29 15 73 -18 172 -18 173 -1 179 16 7 18 4 95 -126 38 -66
64 -82 101 -63 20 9 28 28 47 111 31 130 29 125 47 125 9 0 17 -6 20 -12z
m-2241 -148 c51 -216 61 -290 40 -290 -8 0 -14 8 -14 19 0 29 -35 32 -60 6
l-22 -24 38 -4 c22 -3 -26 -4 -105 -2 -79 2 -145 5 -146 7 -8 8 58 318 86 406
l11 33 69 -3 69 -3 34 -145z m-2438 105 c-3 -9 0 -25 7 -35 20 -34 -2 -54 -59
-55 -54 0 -104 12 -104 26 0 20 96 79 129 79 26 0 32 -3 27 -15z m322 0 c74
-2 135 -5 137 -7 2 -2 4 -286 4 -633 1 -346 2 -666 3 -710 1 -44 2 -107 3
-140 l0 -60 -50 -1 c-66 -1 -74 -4 -50 -13 11 -5 36 -7 55 -6 19 1 38 -3 42
-9 4 -6 8 -161 7 -344 l0 -333 -88 2 c-49 1 -94 -1 -99 -5 -22 -13 -584 -25
-642 -14 -14 3 -29 6 -34 7 -4 0 -5 12 -2 26 5 18 2 25 -9 25 -12 0 -15 13
-15 59 0 33 5 63 11 67 6 3 8 16 4 28 -4 11 -9 119 -11 239 -3 166 -1 217 9
218 6 1 1 4 -12 8 -14 4 -26 12 -28 18 -3 8 17 13 64 15 107 5 243 -2 243 -13
0 -5 -39 -9 -87 -9 -49 0 -95 -5 -103 -11 -11 -8 39 -9 175 -5 267 9 270 9
290 58 9 22 14 43 11 45 -2 2 -10 -12 -17 -32 -13 -35 -16 -37 -48 -31 -18 3
-36 7 -39 10 -4 5 15 90 25 108 5 10 66 -12 80 -30 10 -12 13 -11 18 11 5 18
-5 53 -35 122 -24 53 -44 94 -47 92 -2 -2 1 -17 7 -32 6 -16 10 -38 9 -49 -3
-40 1 -55 19 -72 16 -17 16 -18 -1 -11 -10 4 -25 7 -33 7 -8 0 -14 6 -14 13 0
7 -20 69 -45 138 -68 185 -124 369 -113 369 5 0 16 -15 24 -32 12 -25 14 -27
10 -8 -3 14 -6 33 -6 42 0 10 -14 22 -36 30 l-36 13 6 65 c4 35 8 66 10 67 10
10 56 -20 74 -48 18 -28 18 -34 6 -47 -18 -18 -15 -52 6 -62 8 -4 25 -12 38
-19 20 -10 22 -9 22 18 0 20 -6 30 -20 34 -23 6 -26 43 -6 70 11 14 15 15 19
5 3 -7 6 55 6 137 1 298 9 613 15 623 4 7 32 9 74 6 37 -2 127 -6 200 -9z
m2163 -25 c4 0 9 10 11 22 2 15 20 -18 52 -97 58 -143 64 -162 36 -112 -25 44
-44 36 -47 -22 -1 -20 -3 -46 -4 -58 -3 -49 -18 -18 -42 85 -14 59 -28 125
-32 147 -3 22 -8 49 -11 60 -4 18 -3 18 12 -2 9 -13 20 -23 25 -23z m1006 -37
c26 -20 92 -74 146 -121 l99 -85 -4 -241 -3 -241 -31 -55 c-20 -36 -39 -56
-53 -58 -29 -5 -26 14 9 55 34 38 36 51 16 78 -11 15 -27 19 -74 20 -63 0 -87
10 -62 25 11 7 9 13 -13 30 -15 12 -27 30 -27 40 0 18 -22 22 -37 5 -4 -4 -2
-5 5 -1 7 4 12 1 12 -8 0 -9 -7 -16 -15 -16 -10 0 -15 11 -15 35 0 19 -4 35
-10 35 -6 0 -10 97 -10 270 0 158 4 270 9 270 5 0 31 -16 58 -37z m-2432 9
c18 -13 16 -34 -5 -39 -12 -3 -17 -10 -13 -17 4 -6 8 -18 8 -26 1 -8 5 -26 10
-40 8 -22 10 -19 21 35 11 50 12 -21 8 -415 -2 -261 -4 -493 -4 -515 -1 -40
-1 -40 -15 -15 -9 17 -14 20 -15 9 0 -9 -11 -21 -24 -27 -20 -9 -26 -8 -31 6
-11 25 -17 248 -10 311 l7 53 39 -5 39 -5 0 198 c0 176 -7 237 -23 198 -4 -9
-12 -5 -25 12 -19 22 -19 27 -6 58 21 50 18 82 -6 82 -11 0 -21 6 -21 13 -5
37 -5 114 -1 125 5 13 51 16 67 4z m92 -20 c7 -4 9 -13 4 -21 -5 -7 -3 -37 4
-68 7 -30 10 -63 8 -74 -3 -10 0 -19 6 -19 6 0 11 6 12 13 0 10 2 10 6 0 2 -7
9 -13 14 -13 6 0 7 4 4 10 -3 5 0 7 9 4 8 -3 17 2 20 13 3 10 24 26 46 35 43
18 48 28 25 51 -8 8 -11 18 -7 22 4 5 2 5 -5 1 -6 -3 -14 -2 -18 4 -3 5 -16
10 -29 10 -13 0 -31 10 -42 22 -10 12 -13 18 -5 13 8 -5 53 -10 100 -11 208
-5 294 -22 251 -49 -11 -7 -13 -45 -4 -69 11 -29 24 -17 24 23 0 52 8 71 30
71 28 0 34 -16 46 -115 12 -97 12 -153 -1 -460 -4 -110 -5 -225 -1 -255 l7
-56 117 -12 c64 -7 154 -12 200 -12 l83 0 -3 216 -3 216 60 -7 c32 -3 63 -9
67 -11 4 -3 8 -229 8 -503 l0 -499 -22 -6 -23 -7 22 -11 23 -11 -1 -478 -1
-479 -23 0 c-13 0 -27 5 -31 11 -4 8 -9 8 -17 0 -7 -7 -57 -11 -129 -11 -65 0
-118 -2 -118 -5 0 -3 12 -17 28 -31 l27 -26 -31 6 c-18 3 -49 17 -69 31 -42
28 -107 37 -71 10 11 -8 23 -15 28 -15 4 0 8 -4 8 -10 0 -5 -18 -15 -41 -21
-32 -10 -45 -10 -60 -1 -11 7 -24 10 -29 7 -10 -6 -14 -1224 -4 -1249 5 -13
34 -14 192 -9 119 3 191 9 199 17 6 6 23 61 38 121 15 61 32 119 38 130 6 11
23 56 38 100 l28 80 1 -297 c0 -258 -2 -298 -15 -298 -18 0 -20 -17 -3 -22 16
-6 15 9 16 -230 l2 -198 28 -1 c17 -1 20 -3 9 -6 -9 -2 -15 -9 -12 -14 4 -5 1
-9 -5 -9 -6 0 -8 -5 -5 -10 10 -15 -14 -40 -37 -40 -17 0 -18 -2 -8 -15 11
-14 -12 -15 -210 -11 -122 2 -224 7 -227 10 -3 3 -14 1 -24 -5 -17 -8 -19 -6
-19 18 1 15 4 47 9 69 l8 42 -45 6 c-73 10 -224 7 -217 -4 3 -5 0 -10 -8 -10
-8 0 -17 -9 -20 -20 -3 -11 -1 -20 4 -20 16 0 10 -38 -7 -44 -25 -10 -42 -7
-58 9 -14 14 -16 12 -24 -16 -4 -18 -14 -35 -21 -37 -9 -3 -11 0 -7 7 11 17
-20 60 -50 71 -41 16 -121 -7 -165 -47 -22 -20 -39 -31 -39 -25 0 5 7 15 15
22 19 15 20 40 2 40 -8 0 -23 10 -35 23 -22 23 -22 28 -20 298 l3 274 41 3 41
3 2 55 c1 30 -1 59 -4 64 -3 5 -19 5 -37 -1 -44 -12 -50 0 -44 96 3 44 6 93 6
108 0 67 57 -23 61 -98 1 -16 5 8 10 55 9 103 12 1042 3 1064 -4 11 -19 16
-45 16 l-39 0 0 123 0 124 143 11 c78 6 162 13 187 15 25 2 131 8 235 12 105
4 199 11 211 15 11 5 52 6 91 3 l71 -4 0 28 c0 48 -13 54 -97 48 -42 -3 -233
-10 -426 -15 -192 -6 -365 -13 -382 -16 -32 -6 -33 -5 -33 30 l0 36 143 0 c79
0 178 3 219 6 l75 7 27 52 c14 29 26 63 25 76 -1 26 -37 112 -38 91 -1 -7 6
-26 14 -42 l16 -30 -68 0 c-38 0 -74 4 -80 8 -7 5 -18 35 -24 68 -6 32 -26
135 -45 227 -19 93 -34 177 -34 186 0 25 37 34 50 13 8 -14 9 -12 6 8 -3 14
-5 28 -5 33 -1 4 -17 7 -36 7 -35 0 -35 0 -35 45 0 25 3 45 8 45 19 -1 121
-29 138 -38 10 -5 41 -10 67 -10 26 -1 52 -4 56 -6 5 -3 20 6 35 21 25 25 27
25 40 8 11 -16 14 5 21 144 4 103 3 167 -3 173 -5 5 -25 8 -43 6 -32 -3 -34
-5 -32 -38 3 -51 20 -126 37 -159 13 -24 13 -31 1 -47 -16 -22 -20 -14 -29 51
-12 85 -19 107 -41 121 -19 12 -26 12 -55 -2 -28 -15 -44 -15 -109 -6 -117 16
-167 6 -126 -24 19 -14 18 -15 -10 -8 -16 4 -32 9 -35 11 -8 7 -12 1001 -5
1061 7 53 10 58 32 44z m647 -65 c3 3 16 -7 28 -23 18 -22 22 -39 20 -74 -2
-25 1 -66 6 -91 7 -35 5 -58 -9 -100 -10 -30 -18 -70 -18 -89 -2 -50 -12 -61
-49 -54 -42 8 -49 18 -72 105 -36 131 -39 147 -23 154 9 3 13 12 9 21 -12 31
6 113 30 139 19 20 27 23 47 16 14 -6 28 -7 31 -4z m-2222 -337 c-2 -127 1
-190 8 -190 5 0 10 -7 10 -15 0 -17 -35 -21 -45 -5 -3 6 -17 10 -30 10 -21 0
-23 -5 -27 -52 -5 -65 4 -78 52 -76 20 0 42 -2 48 -6 14 -9 32 25 32 61 0 17
8 33 20 41 19 12 20 10 20 -63 0 -83 5 -78 -88 -88 -31 -4 -48 -13 -63 -31
-16 -20 -29 -26 -59 -26 -45 0 -61 -19 -59 -72 1 -27 3 -29 6 -8 7 36 22 50
54 50 28 0 42 -12 44 -40 4 -41 18 -81 28 -77 6 2 20 29 32 60 12 32 25 54 30
50 4 -5 5 -2 1 5 -9 15 2 54 14 47 4 -3 10 2 14 10 7 18 23 19 59 3 l28 -13
-5 -115 c-5 -120 1 -112 25 33 12 70 24 81 67 58 23 -12 61 4 70 29 6 17 12 9
31 -47 13 -37 30 -80 37 -94 15 -30 104 -335 104 -356 0 -14 -40 -17 -102 -7
-36 6 -38 9 -38 43 0 35 0 35 -16 13 -9 -13 -13 -29 -10 -37 4 -13 -10 -15
-84 -15 l-90 0 -2 53 c-1 28 -1 81 0 117 0 54 -2 45 -15 -53 -18 -136 -3 -123
-160 -131 l-101 -5 29 81 c16 44 28 83 25 85 -2 3 -7 -5 -11 -17 -6 -19 -12
-21 -41 -17 -41 7 -49 -17 -9 -27 30 -8 30 -12 6 -70 -11 -25 -18 -56 -14 -68
3 -13 8 -44 12 -69 4 -25 16 -58 28 -75 18 -26 20 -44 20 -176 1 -96 -3 -146
-9 -142 -7 4 -9 -9 -6 -35 2 -22 1 -41 -3 -41 -3 0 -4 -14 -1 -30 2 -17 0 -30
-4 -29 -5 1 -11 1 -14 0 -3 -1 -64 -4 -136 -6 -72 -2 -137 -5 -145 -7 -12 -3
-14 48 -14 327 l0 330 40 7 c22 5 64 10 94 13 30 3 57 8 60 11 3 3 6 78 6 167
l0 162 -50 0 c-27 0 -74 -3 -102 -7 l-53 -7 0 63 0 64 33 6 c17 3 67 8 110 12
43 4 80 11 83 16 3 5 5 91 4 192 l-1 183 47 54 c62 71 167 179 174 179 3 0 4
-85 2 -190z m2565 -7 c13 -55 7 -63 -47 -63 -19 0 -44 -3 -56 -6 -16 -4 -24 2
-39 35 -10 23 -16 43 -13 46 3 3 34 1 69 -4 35 -5 66 -7 68 -6 8 8 -12 25 -30
25 -11 0 -17 5 -14 10 3 6 16 10 29 10 19 0 24 -8 33 -47z m63 37 c-11 -7 2
-10 45 -10 33 0 93 -5 132 -10 79 -10 103 -6 103 18 0 8 3 13 6 9 3 -3 3 -15
-1 -26 -5 -18 -15 -21 -63 -21 -31 0 -52 -4 -46 -8 6 -4 13 -15 17 -24 5 -14
1 -18 -18 -18 -13 0 -27 -4 -30 -10 -4 -6 7 -10 24 -10 43 0 39 -18 -6 -26
-48 -9 -248 2 -270 15 -14 8 -8 11 32 12 28 1 58 1 67 0 10 -1 26 2 35 8 15 9
13 10 -13 11 -27 0 -32 4 -38 31 -11 56 -8 69 17 69 18 0 19 -2 7 -10z m347
-26 c-3 -3 -12 -4 -19 -1 -8 3 -5 6 6 6 11 1 17 -2 13 -5z m56 -1 c-7 -2 -21
-2 -30 0 -10 3 -4 5 12 5 17 0 24 -2 18 -5z m-2854 -79 c-6 -8 -20 -14 -30
-14 -10 0 -21 -4 -24 -10 -3 -5 -16 -10 -28 -10 -21 1 -21 1 -3 15 11 8 34 18
53 21 29 5 33 10 34 38 2 31 2 31 6 3 3 -16 -1 -35 -8 -43z m2766 -14 c3 -5 0
-10 -9 -10 -8 0 -22 -3 -30 -6 -12 -5 -15 -2 -10 10 7 18 39 22 49 6z m-2499
-57 c-7 -17 -8 -17 -17 0 -12 21 -2 44 13 29 6 -6 8 -19 4 -29z m2009 27 c3
-5 1 -10 -4 -10 -6 0 -11 5 -11 10 0 6 2 10 4 10 3 0 8 -4 11 -10z m-2308 -87
c-2 -16 -4 -3 -4 27 0 30 2 43 4 28 2 -16 2 -40 0 -55z m-112 -63 c0 -8 -10
-16 -22 -18 -18 -3 -23 2 -23 18 0 16 5 21 23 18 12 -2 22 -10 22 -18z m115
-40 c0 -33 -3 -60 -7 -60 -5 0 -6 27 -5 60 5 77 12 77 12 0z m3870 18 c0 -4
-5 -8 -12 -8 -6 0 -3 -6 7 -14 16 -12 17 -16 6 -30 -17 -21 -71 -47 -82 -40
-17 10 -9 22 17 28 20 5 24 10 16 18 -8 8 -15 8 -26 -1 -12 -11 -15 -8 -14 19
1 23 7 34 24 40 12 5 25 14 30 21 5 9 11 7 21 -6 7 -11 13 -22 13 -27z m40
-34 c0 -8 -4 -14 -10 -14 -5 0 -10 9 -10 21 0 11 5 17 10 14 6 -3 10 -13 10
-21z m2 -193 c3 -21 -1 -30 -19 -38 -19 -9 -25 -8 -33 7 -14 26 -12 57 3 63
24 8 45 -5 49 -32z m-643 -62 c-28 -18 -37 -3 -23 36 6 14 8 13 22 -6 12 -18
13 -23 1 -30z m91 1 c0 -15 -7 -20 -25 -20 -27 0 -28 1 -19 24 9 24 44 20 44
-4z m-3930 -135 c0 -28 -3 -36 -9 -26 -11 17 -19 -22 -23 -104 -3 -43 -6 -50
-25 -53 -23 -3 -23 -2 -23 112 l0 116 25 0 c17 0 25 6 25 17 0 15 2 14 15 -3
8 -10 14 -37 15 -59z m-92 -73 c3 -121 2 -122 -20 -122 -31 0 -42 9 -62 47
-18 36 -21 99 -6 137 13 35 48 68 68 64 15 -3 17 -20 20 -126z m4662 103 c0
-8 -4 -15 -9 -15 -13 0 -22 16 -14 24 11 11 23 6 23 -9z m-2705 -45 c-3 -5
-12 -10 -18 -10 -7 0 -6 4 3 10 19 12 23 12 15 0z m-28 -147 c-2 -21 -4 -4 -4
37 0 41 2 58 4 38 2 -21 2 -55 0 -75z m60 -10 c-2 -16 -4 -3 -4 27 0 30 2 43
4 28 2 -16 2 -40 0 -55z m-26 -96 c-8 -8 -11 7 -10 54 l1 64 10 -54 c7 -37 7
-56 -1 -64z m26 11 c-3 -7 -5 -2 -5 12 0 14 2 19 5 13 2 -7 2 -19 0 -25z
m-1017 -6 c0 -9 -5 -34 -11 -54 l-10 -38 -154 0 c-154 0 -155 0 -155 23 0 12
-3 38 -6 57 l-6 35 171 -3 c153 -3 171 -5 171 -20z m3350 12 c0 -10 -4 -12
-12 -7 -7 4 -40 11 -73 14 l-60 6 73 1 c59 2 72 -1 72 -14z m190 6 c-25 -4
-39 -8 -32 -8 7 -1 11 -6 8 -10 -5 -8 42 -3 112 13 36 8 37 7 20 -46 l-11 -39
-77 0 c-43 0 -92 3 -110 6 -28 6 -31 10 -28 35 3 16 1 29 -4 29 -4 0 -8 -11
-8 -25 0 -14 -4 -25 -10 -25 -5 0 -10 18 -10 40 l0 40 98 -2 c77 -1 88 -2 52
-8z m-3908 -52 c2 -30 -1 -56 -7 -60 -5 -4 -47 -8 -92 -9 -46 -1 -88 -2 -94
-3 -9 -1 -53 94 -46 99 7 6 140 22 184 24 l51 1 4 -52z m3658 28 c19 -2 41 -4
48 -5 6 0 12 -14 12 -31 l0 -30 -64 0 c-35 0 -84 -3 -109 -6 -45 -6 -46 -6
-61 31 -9 21 -16 41 -16 45 0 14 32 16 95 7 33 -5 76 -10 95 -11z m-2315 -83
c-3 -27 -26 -139 -51 -251 -24 -112 -44 -205 -44 -208 0 -2 -6 -4 -14 -4 -13
0 -13 4 0 28 16 32 18 70 4 106 -5 14 -6 26 -2 26 4 0 7 26 6 58 0 31 3 69 7
84 4 15 3 30 -2 33 -12 8 -50 -56 -45 -77 2 -10 0 -18 -5 -18 -5 0 -22 -26
-38 -57 -17 -32 -30 -51 -31 -43 0 20 102 259 130 305 12 19 18 35 13 35 -20
1 33 30 55 30 23 0 24 -2 17 -47z m206 -118 c17 -71 32 -149 33 -171 0 -23 4
-40 9 -37 4 2 7 -6 7 -19 0 -19 -2 -20 -11 -8 -10 15 -7 -28 8 -87 5 -23 5
-23 -131 -23 -129 0 -136 1 -136 20 0 11 -9 29 -20 40 -20 20 -20 20 0 117 22
105 59 270 65 290 3 8 27 11 74 10 l70 -2 32 -130z m2209 113 c0 -5 -39 -7
-87 -7 -68 2 -79 3 -48 9 51 9 135 7 135 -2z m143 5 c-7 -2 -19 -2 -25 0 -7 3
-2 5 12 5 14 0 19 -2 13 -5z m-340 -10 c-7 -2 -21 -2 -30 0 -10 3 -4 5 12 5
17 0 24 -2 18 -5z m-3188 -18 c-25 -9 -145 -12 -145 -4 0 5 35 9 78 8 42 0 73
-2 67 -4z m3316 -28 c-13 -13 -26 -3 -16 12 3 6 11 8 17 5 6 -4 6 -10 -1 -17z
m-3837 -13 c8 -22 7 -87 -2 -99 -4 -5 -15 -16 -24 -24 -17 -13 -18 -8 -18 63
0 68 2 76 19 76 10 0 22 -7 25 -16z m3971 -24 c3 -5 -3 -10 -14 -10 -12 0 -21
5 -21 10 0 6 6 10 14 10 8 0 18 -4 21 -10z m225 -53 c0 -7 -12 -23 -25 -36
-29 -27 -30 -23 -10 25 13 32 35 39 35 11z m-385 -67 c3 -6 -1 -13 -10 -16
-19 -8 -30 0 -20 15 8 14 22 14 30 1z m288 -14 c8 -19 -7 -69 -28 -98 -17 -23
-17 -23 -10 12 3 19 8 50 12 68 6 34 17 42 26 18z m-4131 -51 c-6 -34 -12 -32
-12 6 0 16 4 28 9 25 4 -3 6 -17 3 -31z m4178 16 c0 -5 -7 -14 -15 -21 -16
-14 -18 -10 -9 14 6 17 24 22 24 7z m-396 -51 c15 -14 -22 -24 -38 -10 -12 9
-17 7 -25 -9 -6 -11 -11 -31 -11 -45 0 -35 -15 -41 -56 -21 -41 19 -43 31 -7
48 35 15 63 43 55 52 -10 11 71 -5 82 -15z m136 -10 c0 -16 -46 -41 -64 -34
-24 9 -20 19 17 35 33 15 47 15 47 -1z m-338 -42 c-12 -12 -35 -1 -27 12 3 5
13 6 21 3 10 -4 12 -9 6 -15z m256 -39 c3 -25 0 -27 -40 -31 -46 -5 -58 3 -58
40 0 21 4 23 48 20 42 -3 47 -6 50 -29z m-318 -12 c0 -14 -20 -37 -32 -37 -4
0 -2 11 4 25 12 27 28 34 28 12z m732 -1395 l5 -1393 -56 6 c-31 4 -105 13
-166 22 -60 8 -152 17 -203 20 -51 3 -94 9 -97 12 -5 8 22 237 29 249 6 11 8
11 -149 17 -84 3 -123 2 -110 -4 14 -7 16 -10 5 -10 -13 -1 -15 -13 -12 -68 2
-38 8 -83 14 -101 5 -18 8 -36 5 -38 -3 -3 -1 -19 3 -35 5 -17 5 -29 -1 -29
-5 0 -9 9 -9 20 0 20 -11 26 -24 13 -11 -12 -86 -32 -86 -24 0 4 -24 6 -54 3
-30 -2 -71 1 -91 8 l-38 12 52 30 c48 28 50 31 34 44 -38 29 -223 8 -253 -29
-10 -12 -16 -26 -14 -32 3 -6 -10 -19 -27 -29 l-32 -19 7 52 7 51 -36 0 c-19
0 -35 4 -35 10 0 5 -13 7 -30 4 -20 -4 -30 -2 -30 5 0 9 -18 12 -57 10 -59 -2
-69 4 -49 31 22 29 66 40 170 40 l103 0 26 53 c14 28 33 61 41 72 16 20 17 19
49 -18 39 -45 47 -46 47 -8 0 17 5 33 10 36 6 3 10 1 10 -5 0 -7 7 -10 15 -6
10 4 15 -1 15 -15 0 -16 -4 -19 -20 -14 -30 10 -26 -38 7 -83 15 -20 28 -38
29 -40 0 -1 24 3 53 9 40 8 51 15 49 27 -2 13 -13 16 -44 14 -47 -4 -61 13
-39 44 7 11 15 42 18 69 2 28 16 94 30 148 14 53 29 117 33 142 3 25 17 62 30
81 24 36 32 74 14 74 -13 0 30 70 47 77 30 12 -4 37 -52 38 -15 0 -19 6 -17
23 3 17 -2 22 -17 22 -14 0 -21 6 -21 19 0 50 30 68 56 34 12 -16 13 -16 14 8
0 15 7 32 15 39 8 7 15 18 15 25 0 17 43 100 62 119 9 9 30 16 46 16 45 0 59
23 39 63 -10 20 -16 25 -16 15 -1 -17 -29 -38 -50 -38 -17 0 -13 120 4 154 8
15 15 36 14 45 0 11 -3 10 -9 -5 -13 -32 -60 -76 -76 -70 -21 8 1 49 37 70 16
9 29 24 29 33 0 9 6 13 15 9 17 -6 20 0 29 54 4 31 4 32 -6 13 -6 -13 -17 -23
-23 -23 -7 0 -18 -7 -25 -15 -7 -8 -15 -15 -19 -15 -7 0 -41 80 -41 97 0 18
19 26 35 13 18 -15 37 17 29 48 -4 13 1 27 15 38 12 10 21 22 21 27 0 5 9 16
20 25 13 11 21 32 22 59 2 24 6 43 9 43 4 0 9 9 12 21 4 16 10 19 29 14 33
-11 33 -12 8 -33 l-23 -18 25 -27 c14 -15 28 -27 32 -27 3 0 6 20 6 44 0 52
14 96 31 96 14 0 49 39 49 55 0 19 32 79 47 88 9 6 13 22 12 45 -2 24 1 36 9
35 17 -4 39 35 48 82 9 51 84 124 80 79 0 -9 4 -18 9 -21 6 -2 16 30 23 75 13
82 31 143 46 154 5 3 16 4 24 1 19 -8 32 14 32 55 0 40 50 117 105 160 22 17
40 30 41 29 1 -1 4 -629 6 -1395z m-4228 1307 c-17 -28 -62 16 -50 47 5 12 11
10 31 -12 13 -14 22 -30 19 -35z m1246 46 c0 -8 -4 -15 -10 -15 -5 0 -7 7 -4
15 4 8 8 15 10 15 2 0 4 -7 4 -15z m2790 -31 c0 -13 -7 -45 -16 -71 -9 -26
-16 -58 -16 -70 0 -21 -1 -21 -21 -2 -11 10 -29 21 -39 25 -25 7 -23 19 7 38
18 12 24 23 20 36 -3 10 1 32 9 49 19 36 56 33 56 -5z m-2347 -21 c37 -5 67
-5 67 -1 0 5 4 8 9 8 5 0 3 -21 -3 -47 l-12 -48 -141 -3 c-156 -3 -172 3 -157
55 4 16 6 32 5 36 -1 5 2 6 7 3 4 -2 14 0 22 5 15 10 77 7 203 -8z m248 -50
c-12 -31 -24 -48 -35 -47 -9 0 -38 1 -65 2 l-49 2 10 38 c6 20 12 40 15 45 2
4 35 7 73 7 l70 0 -19 -47z m-1926 13 c21 -32 18 -182 -3 -195 -7 -4 -71 -11
-141 -14 -70 -4 -155 -10 -189 -13 l-62 -7 0 121 c0 83 4 122 12 124 6 2 91 5
189 7 l178 3 16 -26z m4045 -47 c0 -10 -7 -19 -15 -19 -9 0 -15 9 -15 25 0 18
4 23 15 19 8 -4 15 -15 15 -25z m-500 -19 c26 -26 9 -35 -18 -9 -12 11 -22 22
-22 24 0 12 22 3 40 -15z m-1957 -7 c-24 -2 -62 -2 -85 0 -24 2 -5 4 42 4 47
0 66 -2 43 -4z m2080 -6 c4 3 7 -1 7 -10 0 -21 -7 -21 -26 -3 -18 18 -19 32
-1 17 8 -6 17 -8 20 -4z m-63 -18 c0 -6 -4 -7 -10 -4 -5 3 -10 11 -10 16 0 6
5 7 10 4 6 -3 10 -11 10 -16z m-220 -19 c0 -5 -7 -10 -16 -10 -8 0 -12 5 -9
10 3 6 10 10 16 10 5 0 9 -4 9 -10z m189 -137 c-11 -30 -4 -40 31 -45 24 -3
61 -51 48 -63 -4 -4 -19 0 -35 8 -15 9 -35 18 -44 20 -23 7 -32 54 -17 87 15
35 31 29 17 -7z m-2769 -9 c0 -8 -6 -11 -15 -8 -8 4 -15 15 -15 26 0 17 3 18
15 8 8 -7 15 -19 15 -26z m-694 -8 c3 -14 3 -29 0 -34 -3 -5 1 -17 8 -27 12
-17 22 -17 167 -6 85 6 192 14 239 16 47 2 119 8 160 14 51 6 79 6 88 -1 8 -7
16 -7 27 2 8 6 46 13 85 15 l70 2 0 -102 0 -102 -71 5 c-66 4 -73 3 -89 -18
l-18 -23 -11 21 c-17 31 -68 29 -104 -3 -15 -14 -27 -21 -27 -15 0 5 -7 10
-15 10 -12 0 -14 -10 -10 -47 3 -27 4 -66 3 -88 -3 -81 -2 -1020 1 -1140 0
-22 1 -54 2 -72 0 -32 1 -32 57 -35 45 -2 57 -7 60 -21 3 -15 -12 -59 -34 -97
-1 -3 1 -12 6 -20 7 -11 11 -11 23 -1 13 10 15 9 10 -7 -7 -29 16 -37 39 -14
21 20 20 24 -7 72 -8 14 -15 37 -15 51 0 34 31 47 126 51 l71 3 6 -270 c4
-148 4 -280 1 -292 -4 -16 -2 -23 7 -24 8 -1 1 -4 -15 -8 -16 -3 -31 -11 -33
-17 -5 -16 23 -21 152 -31 101 -7 105 -8 55 -14 l-55 -6 55 -2 c30 -1 62 -6
70 -12 13 -9 13 -10 0 -8 -8 1 -28 -3 -45 -10 -16 -7 -40 -13 -53 -14 -12 -1
-26 -7 -30 -13 -11 -17 -48 -34 -79 -35 -27 -1 -27 -1 5 -9 19 -4 68 -11 110
-15 42 -4 79 -11 82 -15 7 -11 641 6 698 18 37 8 42 7 42 -8 0 -19 -45 -34
-93 -30 -16 1 -153 -4 -305 -10 -226 -10 -296 -9 -377 1 -55 8 -122 13 -150
12 -35 -1 -45 1 -35 8 10 7 0 8 -35 5 -30 -3 -40 -3 -25 2 21 7 17 9 -30 19
-110 23 -196 35 -230 31 -26 -2 -11 -7 60 -20 52 -8 82 -16 66 -17 -16 -1 -70
6 -120 13 -50 8 -147 22 -216 31 -69 9 -171 23 -227 32 -56 9 -109 13 -117 10
-13 -5 -16 -22 -16 -81 l0 -74 48 -7 c26 -3 57 -13 68 -20 14 -9 25 -10 31 -4
15 15 83 0 83 -17 0 -11 4 -12 19 -4 30 15 69 12 80 -7 7 -12 11 -13 11 -5 0
10 13 12 58 7 66 -8 81 -18 62 -41 -13 -14 -10 -16 21 -13 19 2 40 0 47 -5 22
-14 12 -26 -22 -26 -25 0 -38 -6 -50 -25 -9 -14 -23 -25 -31 -25 -8 0 -15 -9
-15 -19 0 -11 -4 -22 -9 -25 -12 -8 -2 -46 16 -68 10 -11 11 -18 4 -23 -16 -9
-31 3 -32 28 0 12 -3 16 -6 9 -2 -6 -9 -10 -14 -6 -5 3 -9 -3 -9 -12 0 -10 -3
-15 -6 -12 -3 4 -17 0 -31 -7 -15 -8 -30 -12 -35 -9 -4 3 -8 0 -8 -6 0 -7 -7
-9 -17 -6 -9 4 -32 -4 -54 -19 -21 -14 -49 -25 -63 -25 -17 0 -27 -9 -37 -33
-8 -17 -13 -35 -11 -40 1 -4 -2 -7 -7 -7 -5 0 -15 16 -23 37 l-15 36 -7 -28
c-6 -24 8 -85 20 -85 11 0 54 25 54 31 0 13 60 38 76 32 7 -3 14 -16 14 -29 0
-20 5 -24 30 -24 27 0 29 2 18 19 -9 15 -9 26 -1 43 6 13 14 31 17 40 7 24 23
23 36 -3 7 -12 18 -18 26 -15 10 4 14 -2 14 -19 0 -14 4 -25 10 -25 14 0 32
39 26 57 -3 8 0 21 8 29 19 19 26 18 26 -4 0 -10 9 -26 21 -35 20 -18 21 -18
14 2 -9 30 12 35 39 8 18 -18 22 -31 18 -52 -4 -24 -2 -27 12 -22 10 4 24 7
32 7 8 0 14 9 14 21 0 12 8 23 20 26 11 3 20 9 20 14 0 5 9 9 20 9 23 0 27
-18 6 -26 -18 -7 -28 -44 -13 -44 7 0 21 3 33 6 19 5 20 10 13 52 -5 25 -16
53 -25 63 -18 20 -54 14 -54 -10 0 -40 -46 -54 -79 -23 -11 9 -31 26 -45 37
-14 11 -26 28 -26 38 0 10 -5 15 -10 12 -5 -3 -10 1 -10 9 0 9 5 16 10 16 6 0
10 9 10 21 0 15 5 19 15 15 12 -4 15 3 15 30 0 31 3 35 23 32 18 -2 23 -10 25
-45 2 -29 8 -43 18 -43 13 0 19 18 15 48 -1 6 3 12 9 12 5 0 10 9 10 20 0 11
9 29 20 40 11 11 20 16 20 10 0 -17 25 -11 43 10 9 11 26 20 38 20 16 0 19 -4
14 -22 -4 -13 -19 -35 -32 -50 -15 -16 -23 -33 -20 -42 10 -25 25 -19 32 14 4
16 11 30 15 30 14 0 52 -144 44 -165 -3 -7 5 -23 18 -35 l23 -21 -25 -20 c-14
-11 -34 -26 -45 -34 -18 -14 -15 -15 33 -15 29 0 52 -4 52 -8 0 -4 -255 -27
-567 -50 -313 -24 -598 -45 -635 -49 -47 -4 -68 -2 -68 6 0 6 13 11 29 11 16
0 42 3 59 6 l30 6 7 139 c6 119 9 138 21 128 16 -13 18 -2 5 20 -6 9 -11 10
-15 2 -4 -6 -35 -11 -69 -11 l-62 0 3 67 c2 38 8 72 13 77 5 6 9 20 9 33 0 12
8 27 19 32 16 9 21 6 31 -22 25 -68 30 -77 39 -77 5 0 12 11 15 25 4 14 13 25
21 25 8 0 15 5 15 11 0 26 19 -5 25 -41 8 -48 15 -54 42 -35 39 27 40 135 1
135 -10 0 -17 -4 -14 -8 2 -4 -10 -9 -29 -10 -29 -2 -33 0 -28 18 5 19 -4 25
-34 21 -7 -1 -13 3 -13 8 0 7 -8 7 -25 1 -15 -6 -26 -6 -30 0 -4 7 -13 6 -25
0 -10 -6 -21 -7 -23 -2 -5 7 -10 226 -8 325 1 39 4 47 20 47 28 0 52 11 45 21
-3 5 -18 9 -35 9 -22 0 -29 5 -29 20 0 22 28 28 47 9 21 -21 123 68 125 108 0
10 -3 41 -7 68 -8 56 1 70 45 77 21 2 27 11 35 51 6 29 23 64 43 88 36 43 33
45 -49 26 -65 -16 -88 -10 -118 30 -33 44 -36 47 -60 63 -16 11 -26 31 -31 60
-5 25 -16 72 -25 105 -11 38 -15 77 -11 105 3 25 6 197 7 383 1 211 5 337 11
337 5 0 12 -9 15 -20 3 -11 13 -20 22 -20 30 0 61 12 55 21 -3 5 0 9 5 9 6 0
11 4 11 9 0 5 -22 11 -50 15 -51 7 -70 26 -26 26 38 0 39 16 3 40 -27 18 -28
20 -7 14 14 -4 33 -7 42 -6 9 0 20 -8 23 -18 4 -12 12 -17 21 -13 17 6 13 29
-5 25 -6 -1 -11 2 -11 8 0 6 -8 10 -17 10 -17 1 -17 1 0 11 22 13 41 17 79 18
27 1 58 24 58 43 0 5 -7 8 -15 4 -9 -3 -15 0 -15 9 0 8 7 15 15 15 8 0 15 6
15 13 0 6 5 29 11 50 8 30 15 37 34 37 14 0 29 8 35 20 13 24 -9 38 -69 42
-22 2 -41 6 -41 10 0 8 32 18 68 21 12 0 22 4 22 8 0 17 34 39 60 39 29 0 48
-14 32 -24 -5 -3 -5 -33 -1 -68 10 -80 13 -468 5 -489 -11 -27 9 -62 42 -73
52 -18 45 -31 -20 -38 -28 -3 -21 -18 10 -24 15 -3 39 -14 52 -24 20 -15 25
-28 26 -72 0 -29 4 -68 8 -86 l8 -32 49 6 c42 6 49 4 49 -11 0 -15 -7 -16 -49
-10 -61 8 -66 2 -61 -90 2 -38 2 -86 0 -105 -1 -19 -3 -66 -4 -104 -1 -62 -4
-73 -29 -98 -42 -41 -61 -38 -54 10 6 35 5 37 -23 38 -35 1 -40 -12 -40 -116
0 -45 -5 -81 -12 -88 -9 -9 -7 -16 6 -31 12 -13 15 -27 11 -41 -9 -28 10 -48
39 -43 17 4 27 -1 35 -15 13 -24 6 -32 -30 -32 -33 0 -37 -9 -35 -80 l1 -55
67 -3 68 -3 -2 116 c-1 88 2 119 12 125 8 5 57 11 109 14 222 14 243 17 237
32 -3 8 -4 14 -2 14 3 0 12 3 21 6 12 5 16 2 13 -11 -2 -10 3 -20 10 -22 15
-6 14 -54 14 617 -1 783 -1 760 -13 760 -7 0 -10 -23 -8 -62 3 -94 2 -95 -28
-94 -28 1 -28 1 -25 66 2 35 8 68 15 72 13 8 14 7 -31 31 -28 14 -60 17 -187
17 -106 0 -156 4 -161 12 -4 6 -7 26 -6 43 1 21 -6 39 -18 50 -15 14 -20 31
-20 70 0 58 4 65 36 65 17 0 25 -7 30 -24z m3749 -38 c-8 -39 -37 -108 -44
-108 -12 1 -40 69 -31 75 6 4 10 1 10 -4 0 -22 21 -10 31 16 10 28 28 53 36
53 3 0 2 -15 -2 -32z m-595 -37 c0 -6 -4 -13 -10 -16 -5 -3 -10 1 -10 9 0 9 5
16 10 16 6 0 10 -4 10 -9z m-100 -60 c0 -11 -4 -23 -10 -26 -6 -4 -10 5 -10
19 0 14 5 26 10 26 6 0 10 -9 10 -19z m619 12 c-1 -5 0 -10 1 -13 1 -3 4 -18
6 -33 4 -22 1 -30 -15 -34 -13 -3 -18 -10 -14 -21 4 -10 2 -13 -3 -9 -12 12
-13 79 0 100 11 17 27 24 25 10z m-151 -63 c13 0 20 -20 15 -41 -3 -10 -17
-15 -39 -16 -38 -1 -39 0 -21 27 10 17 9 22 -2 29 -8 5 -11 16 -7 26 6 16 8
16 25 -4 10 -11 23 -21 29 -21z m-223 -10 c1 -8 7 -36 14 -61 11 -39 10 -51
-3 -83 -14 -34 -14 -38 4 -56 11 -11 20 -25 20 -32 0 -6 -7 -3 -14 8 -14 18
-16 17 -33 -23 -18 -42 -37 -55 -46 -30 -7 22 -34 -10 -42 -51 -6 -31 -9 -34
-15 -17 -5 11 -9 34 -9 50 -1 17 -10 45 -22 64 -13 21 -18 43 -15 57 3 12 2
26 -4 29 -6 3 -10 -4 -11 -17 0 -23 0 -23 -9 -2 -9 23 -46 38 -56 23 -21 -34
-33 26 -15 74 11 27 61 44 61 21 0 -8 1 -17 3 -21 1 -5 -7 -8 -18 -8 -13 0
-20 -7 -20 -20 0 -16 6 -19 32 -17 22 2 35 -3 45 -16 7 -10 23 -24 36 -31 12
-6 22 -21 22 -31 0 -11 6 -20 14 -20 28 0 37 74 10 84 -15 6 -15 9 3 29 12 13
20 37 20 59 1 20 4 42 8 48 10 15 40 8 40 -10z m36 -23 c-8 -8 -11 -7 -11 4 0
20 13 34 18 19 3 -7 -1 -17 -7 -23z m-170 -50 c-13 -13 -26 -3 -16 12 3 6 11
8 17 5 6 -4 6 -10 -1 -17z m449 13 c0 -14 -69 -85 -75 -78 -7 6 25 70 40 80
15 11 35 10 35 -2z m-98 -32 c-7 -7 -12 -8 -12 -2 0 14 12 26 19 19 2 -3 -1
-11 -7 -17z m-147 -28 c0 -22 -29 -18 -33 3 -3 14 1 18 15 15 10 -2 18 -10 18
-18z m-2706 -95 c-17 -55 -26 -64 -59 -63 -31 1 -50 29 -50 74 0 34 21 26 40
-15 15 -31 17 -31 33 -13 9 10 17 30 17 45 0 14 5 38 12 54 l12 28 4 -35 c2
-19 -2 -53 -9 -75z m1428 64 c-3 -10 1 -20 9 -23 8 -3 14 -15 14 -26 0 -16 -6
-20 -35 -20 -28 0 -35 4 -35 19 0 10 7 24 15 31 10 9 12 17 5 30 -8 15 -6 17
11 13 14 -4 19 -12 16 -24z m1363 16 c0 -8 -4 -15 -10 -15 -5 0 -10 7 -10 15
0 8 5 15 10 15 6 0 10 -7 10 -15z m160 4 c0 -7 -11 -22 -25 -35 -29 -27 -31
-24 -10 16 15 30 35 40 35 19z m-244 -56 c-11 -11 -19 6 -11 24 8 17 8 17 12
0 3 -10 2 -21 -1 -24z m-853 -94 c18 -20 17 -20 -5 -17 -12 2 -24 11 -26 21
-5 23 10 22 31 -4z m934 -1 c-3 -8 -6 -5 -6 6 -1 11 2 17 5 13 3 -3 4 -12 1
-19z m-3080 -20 c-3 -8 -6 -5 -6 6 -1 11 2 17 5 13 3 -3 4 -12 1 -19z m2757 6
c18 -48 -7 -70 -46 -40 -21 16 -23 27 -6 44 17 17 45 15 52 -4z m-2494 -49 c0
-8 -4 -15 -10 -15 -5 0 -10 7 -10 15 0 8 5 15 10 15 6 0 10 -7 10 -15z m1870
-37 c0 -4 -6 -8 -14 -8 -14 0 -28 35 -18 45 7 6 32 -23 32 -37z m750 28 c0 -3
-4 -8 -10 -11 -5 -3 -10 -1 -10 4 0 6 5 11 10 11 6 0 10 -2 10 -4z m150 -33
c0 -25 0 -26 -20 -8 -15 14 -17 21 -9 31 16 19 29 8 29 -23z m-2764 -65 c4
-45 16 -349 15 -382 0 -10 -4 -23 -10 -29 -20 -20 -34 39 -37 163 -2 69 -3
127 -4 129 0 3 -7 -4 -16 -15 -10 -12 -14 -14 -11 -4 2 8 0 23 -4 32 -11 21 0
78 16 78 6 0 17 18 24 41 15 49 23 45 27 -13z m1874 17 c0 -24 -5 -35 -15 -35
-15 0 -22 50 -8 63 15 15 23 5 23 -28z m-2181 -57 c-20 -21 -21 -21 -14 -3 4
11 8 27 8 35 0 24 22 32 25 10 2 -11 -7 -30 -19 -42z m2177 -1 c16 -43 -1
-459 -21 -496 l-13 -26 -7 29 c-6 23 4 123 29 284 2 14 -3 26 -14 32 -24 13
-34 42 -18 55 17 13 17 33 -1 45 -13 7 -12 14 4 49 19 42 32 51 41 28z m648
-39 c11 18 36 2 36 -23 0 -16 -7 -25 -26 -29 -37 -10 -64 17 -64 63 l1 36 23
-29 c14 -17 26 -24 30 -18z m126 -13 c-7 -14 -19 -25 -27 -25 -7 0 -13 -4 -13
-10 0 -5 -5 -10 -11 -10 -6 0 -8 7 -5 15 3 9 -1 18 -9 21 -11 5 -12 11 -3 30
8 17 15 21 23 14 9 -8 15 -6 19 7 6 15 8 15 23 0 15 -14 15 -20 3 -42z m-842
-42 c-6 -7 -7 -13 -4 -13 4 0 4 -5 0 -11 -5 -8 -10 -6 -16 5 -12 21 10 65 23
45 4 -8 3 -19 -3 -26z m868 -60 c-10 -10 -19 5 -10 18 6 11 8 11 12 0 2 -7 1
-15 -2 -18z m-186 -79 c0 -11 -28 -33 -34 -27 -13 13 -5 33 14 33 11 0 20 -3
20 -6z m28 -78 c-14 -20 -27 -33 -31 -30 -3 3 4 24 15 46 13 25 24 36 30 30 7
-7 1 -23 -14 -46z m116 -54 c-7 -26 -17 -28 -34 -7 -11 13 -10 18 6 30 23 17
35 7 28 -23z m56 20 c0 -10 -7 -27 -16 -38 -15 -18 -15 -18 -10 6 3 14 6 31 6
38 0 6 5 12 10 12 6 0 10 -8 10 -18z m-216 -67 c11 -8 16 -20 12 -30 -7 -19
-26 -11 -26 11 0 11 -6 13 -20 9 -19 -6 -27 5 -13 18 10 11 26 8 47 -8z
m-2451 -102 c4 -39 -6 -73 -24 -73 -12 0 -29 44 -18 48 4 2 5 10 2 18 -7 20 4
44 21 44 9 0 16 -14 19 -37z m2561 -44 c-7 -11 -34 -12 -34 -1 0 14 11 21 26
15 8 -3 11 -9 8 -14z m-65 -82 c16 -20 -3 -158 -23 -169 -9 -5 -16 -18 -16
-29 0 -17 -3 -18 -20 -7 -39 25 -13 85 30 70 13 -5 13 -3 0 13 -8 10 -13 28
-12 40 3 24 -21 50 -38 40 -6 -3 -10 3 -10 15 0 16 4 20 19 15 12 -3 21 0 25
10 7 19 30 20 45 2z m-2312 -89 c-3 -8 -6 -5 -6 6 -1 11 2 17 5 13 3 -3 4 -12
1 -19z m2253 -10 c0 -24 -15 -37 -30 -28 -11 7 -11 11 -1 24 16 19 31 21 31 4z
m-2700 -25 c0 -15 -2 -15 -24 -7 -23 9 -20 23 4 21 11 -1 20 -7 20 -14z m254
-88 c3 -8 1 -15 -4 -15 -6 0 -10 7 -10 15 0 8 2 15 4 15 2 0 6 -7 10 -15z
m759 -22 c-7 -2 -19 -2 -25 0 -7 3 -2 5 12 5 14 0 19 -2 13 -5z m1672 -43 c-3
-6 -10 -10 -16 -10 -10 0 -12 33 -2 44 9 9 26 -22 18 -34z m-3463 -7 c9 -10
21 -35 26 -55 9 -32 6 -45 -18 -97 -26 -54 -33 -61 -70 -71 -23 -6 -45 -8 -49
-5 -8 9 -14 180 -7 210 3 13 14 26 24 28 40 11 80 6 94 -10z m3447 -95 c-1
-13 -5 -34 -9 -48 -7 -20 -8 -16 -9 23 -1 26 4 47 9 47 6 0 10 -10 9 -22z m51
-233 c0 -17 -5 -25 -18 -25 -10 0 -23 -5 -29 -11 -23 -23 -24 11 -1 35 30 32
48 32 48 1z m-2213 -153 c-20 -22 -22 -73 -5 -90 8 -8 8 -12 1 -12 -26 0 -32
80 -7 104 22 22 31 20 11 -2z m437 -4 c7 7 -1 -93 -10 -120 -4 -14 -13 -17
-42 -12 -50 8 -72 21 -66 39 4 8 1 15 -5 15 -6 0 -11 12 -10 28 l1 27 8 -25
c8 -25 8 -25 11 5 l2 30 4 -28 c2 -15 9 -25 14 -22 5 4 9 2 9 -3 0 -6 9 -8 20
-5 14 4 22 -2 30 -21 5 -14 11 -26 13 -26 1 0 4 23 5 50 2 52 -6 61 -32 34
-15 -14 -16 -13 -16 9 0 32 8 37 35 27 13 -5 26 -6 29 -2z m-214 -27 c0 -11 8
-22 18 -24 13 -4 11 -5 -5 -6 -13 0 -23 3 -23 8 0 5 -3 16 -6 25 -3 9 -1 16 5
16 6 0 11 -9 11 -19z m509 -77 c20 -18 5 -31 -18 -17 -11 7 -22 9 -26 5 -15
-15 -65 1 -65 22 0 19 87 11 109 -10z m-636 -19 c-3 -9 -8 -14 -10 -11 -3 3
-2 9 2 15 9 16 15 13 8 -4z m532 -34 c-12 -10 -65 -24 -65 -16 0 2 15 9 33 14
43 12 42 12 32 2z m715 -32 c0 -5 -9 -9 -20 -9 -11 0 -20 6 -20 14 0 9 7 12
20 9 11 -3 20 -9 20 -14z m-443 -31 c-3 -8 -6 -5 -6 6 -1 11 2 17 5 13 3 -3 4
-12 1 -19z m824 -22 c35 4 69 2 82 -3 33 -15 131 -43 152 -43 10 0 16 -3 12
-6 -7 -7 -192 -17 -281 -16 -40 1 -65 7 -77 18 -16 14 -34 16 -116 12 -54 -3
-107 -2 -118 3 -13 5 3 8 48 8 43 1 66 5 62 11 -4 6 25 10 79 10 82 0 86 1 87
23 l2 22 4 -23 c4 -22 7 -22 64 -16z m-814 -21 c-6 -16 -50 -17 -87 -1 l-35
15 62 -2 c37 -1 62 -6 60 -12z m263 -41 c0 -2 -11 -4 -25 -4 -14 0 -25 4 -25
9 0 4 11 6 25 3 14 -2 25 -6 25 -8z m-1337 -1 c-7 -2 -19 -2 -25 0 -7 3 -2 5
12 5 14 0 19 -2 13 -5z m1550 -20 c-23 -2 -64 -2 -90 0 -26 2 -7 3 42 3 50 0
71 -1 48 -3z m-195 -111 c-33 -7 -9 -42 25 -37 21 4 22 -8 2 -25 -11 -9 -15
-9 -15 -1 0 7 -8 11 -17 9 -12 -2 -19 6 -24 29 -7 34 3 45 31 34 12 -4 12 -6
-2 -9z m42 14 c0 -3 -4 -8 -10 -11 -5 -3 -10 -1 -10 4 0 6 5 11 10 11 6 0 10
-2 10 -4z m315 -7 c-5 8 2 10 22 5 36 -9 42 -14 15 -14 -11 0 -23 -4 -26 -9
-4 -5 4 -7 16 -3 15 3 19 2 14 -7 -5 -7 -30 -11 -67 -10 -34 1 -55 5 -48 10 7
4 16 6 20 3 4 -2 9 6 12 17 5 18 8 19 27 9 16 -9 20 -9 15 -1z m-720 -9 c-3
-5 -14 -10 -23 -9 -14 0 -13 2 3 9 27 11 27 11 20 0z m55 -16 c0 -2 -12 -4
-27 -4 -21 0 -24 3 -14 9 13 8 41 5 41 -5z m-1006 -30 c9 -3 16 -10 16 -14 0
-16 -54 -90 -65 -90 -19 0 -35 23 -35 50 0 32 15 57 24 41 10 -16 36 -13 36 4
0 17 2 18 24 9z m1416 -30 c0 -2 -13 -4 -30 -4 -16 0 -30 4 -30 8 0 5 14 7 30
4 17 -2 30 -6 30 -8z m53 -11 c-7 -2 -21 -2 -30 0 -10 3 -4 5 12 5 17 0 24 -2
18 -5z m60 -10 c-7 -2 -19 -2 -25 0 -7 3 -2 5 12 5 14 0 19 -2 13 -5z m172
-14 c-22 -4 -46 -4 -55 0 -9 3 4 8 30 11 57 7 78 -2 25 -11z m-1635 -15 c0
-14 -4 -23 -9 -20 -5 3 -7 15 -4 26 7 28 13 25 13 -6z m560 -33 c0 -10 -7 -24
-15 -31 -12 -10 -16 -9 -21 4 -3 9 -4 23 0 31 8 21 36 19 36 -4z m168 -31 c14
-23 8 -40 -13 -40 -7 0 -16 -7 -19 -16 -4 -11 -14 -15 -30 -12 -19 4 -22 1
-18 -14 3 -13 14 -18 38 -18 46 0 48 -12 8 -39 -38 -26 -41 -33 -19 -55 19
-18 18 -26 -2 -48 -11 -12 -12 -18 -4 -18 7 0 9 -4 6 -10 -11 -17 -38 -12 -31
7 4 10 -2 24 -15 36 l-22 20 -18 -24 c-10 -13 -19 -18 -19 -11 0 6 -10 22 -21
33 l-22 22 23 17 c18 14 21 23 15 48 -7 34 9 44 34 20 10 -11 11 -10 6 3 -3 9
1 24 11 33 9 10 17 30 18 44 1 23 5 27 29 25 15 -1 27 2 27 8 0 17 25 9 38
-11z m46 14 c16 -6 23 -44 8 -44 -13 0 -52 30 -52 41 0 10 21 12 44 3z m-776
-31 c-2 -10 -10 -18 -18 -18 -8 0 -16 8 -18 18 -2 12 3 17 18 17 15 0 20 -5
18 -17z m1052 -24 c0 -4 -5 -11 -11 -14 -7 -5 -3 -12 9 -21 13 -9 18 -21 15
-39 -5 -22 -2 -25 25 -25 16 0 35 7 42 15 10 13 8 20 -15 43 -24 23 -25 27
-10 31 30 5 145 -10 145 -20 0 -5 -8 -9 -17 -9 -28 -1 -56 -27 -49 -45 3 -9
-1 -32 -10 -51 -15 -32 -17 -33 -39 -18 -21 14 -27 13 -61 -5 -52 -28 -58 -27
-51 16 4 24 2 40 -7 47 -8 7 -11 28 -8 62 3 45 6 51 23 47 10 -3 19 -9 19 -14z
m-262 -47 c3 -21 2 -22 -20 -10 -13 7 -25 14 -27 15 -1 1 0 7 4 13 11 18 40 6
43 -18z m657 -2 c174 -28 171 -27 150 -50 -23 -26 -10 -43 27 -35 25 6 30 3
35 -15 3 -12 16 -25 28 -30 21 -8 23 -15 24 -94 1 -56 -3 -86 -10 -86 -6 0
-13 9 -16 20 -4 16 -9 18 -25 9 -13 -7 -17 -16 -13 -30 8 -23 -12 -80 -32 -92
-20 -12 -52 -85 -46 -106 3 -10 0 -22 -6 -25 -6 -4 -11 -17 -11 -30 0 -12 -5
-27 -12 -34 -8 -8 -8 -15 1 -26 7 -9 16 -15 19 -14 31 3 42 -4 42 -29 0 -21
-3 -24 -12 -15 -17 17 -38 15 -38 -4 0 -10 5 -14 15 -10 18 6 38 -33 25 -48
-12 -13 -43 2 -37 17 3 8 -1 14 -9 14 -9 0 -14 -11 -14 -28 0 -19 -5 -26 -17
-25 -10 0 -26 -14 -38 -35 -11 -20 -26 -46 -33 -58 -11 -18 -10 -21 3 -21 11
0 15 -11 15 -41 0 -34 -3 -40 -20 -37 -10 2 -19 0 -20 -4 -1 -25 2 -28 25 -22
21 5 25 3 25 -14 0 -12 -4 -23 -9 -26 -9 -6 0 -64 13 -85 4 -6 0 -14 -8 -17
-23 -9 -20 -24 4 -24 19 0 26 -12 20 -35 -2 -9 -7 -38 -9 -57 -2 -15 -49 -8
-55 8 -3 8 -11 12 -17 9 -6 -4 -8 -13 -5 -21 3 -8 -1 -14 -9 -14 -13 0 -15 56
-17 388 l-3 387 -55 -2 c-67 -3 -651 -40 -770 -49 -66 -5 -82 -4 -74 5 6 7 60
17 120 23 124 11 144 15 126 27 -6 4 4 7 25 8 21 1 42 -5 48 -13 8 -12 34 -12
160 -3 83 6 155 15 161 20 5 4 27 6 46 2 36 -5 37 -5 49 38 10 32 10 44 2 46
-7 3 -9 11 -6 19 3 7 9 12 13 9 4 -3 13 9 19 27 12 34 15 85 4 75 -3 -4 -13
-1 -21 6 -13 10 -15 9 -9 -5 4 -13 -2 -23 -21 -35 -15 -10 -33 -24 -41 -31
-12 -11 -17 -10 -35 8 -20 20 -20 22 -3 34 9 7 17 20 17 29 0 9 5 19 10 22 6
3 10 -3 10 -14 0 -12 6 -21 13 -21 21 0 40 17 33 29 -4 6 -12 9 -17 6 -5 -4
-12 1 -16 11 -4 10 0 20 10 26 10 5 17 18 17 29 0 18 4 20 39 14 34 -6 39 -4
45 17 10 39 7 58 -8 52 -8 -3 -22 -1 -32 4 -15 9 -15 11 5 31 11 11 21 29 21
39 0 25 9 32 34 27 12 -3 80 -14 151 -25z m-1445 5 c0 -8 -7 -15 -15 -15 -8 0
-15 7 -15 15 0 8 7 15 15 15 8 0 15 -7 15 -15z m1700 -56 c0 -6 -6 -9 -14 -6
-8 3 -17 1 -19 -6 -2 -7 -8 -8 -13 -4 -5 4 -2 12 6 17 20 13 40 12 40 -1z
m1525 -19 c3 -5 1 -10 -4 -10 -6 0 -11 5 -11 10 0 6 2 10 4 10 3 0 8 -4 11
-10z m-1341 -8 c9 -15 6 -316 -3 -377 -6 -33 -11 -182 -13 -331 -2 -215 0
-274 10 -287 11 -13 13 -56 9 -204 -3 -103 -6 -190 -7 -193 -1 -3 -10 24 -21
60 -19 60 -20 96 -21 445 -1 209 0 496 0 638 2 247 3 257 21 257 11 0 22 -4
25 -8z m404 -43 c-3 -52 -3 -52 -45 -64 l-43 -13 0 52 c0 61 12 76 58 76 l33
0 -3 -51z m-1493 11 c3 -5 1 -10 -4 -10 -6 0 -11 5 -11 10 0 6 2 10 4 10 3 0
8 -4 11 -10z m-787 -33 l3 -27 82 5 c56 3 74 2 57 -4 -14 -5 -119 -14 -235
-21 -242 -13 -415 -22 -893 -50 -401 -23 -362 -22 -362 -11 0 12 71 17 721 51
305 16 562 32 571 35 9 4 19 18 22 31 8 32 30 26 34 -9z m762 23 c0 -5 -4 -10
-10 -10 -5 0 -10 5 -10 10 0 6 5 10 10 10 6 0 10 -4 10 -10z m29 -105 c1 -11
-4 -27 -9 -35 -9 -13 -13 -11 -29 10 l-19 24 -4 -34 c-2 -27 -8 -36 -25 -38
-16 -2 -23 3 -28 27 -4 20 -11 28 -21 24 -8 -3 -14 0 -14 6 0 6 7 11 15 11 26
0 53 35 48 62 -4 22 -1 25 27 26 18 0 35 4 39 7 6 7 19 -52 20 -90z m2451 86
c0 -5 -7 -12 -16 -15 -24 -9 -28 -7 -14 9 14 17 30 20 30 6z m-2650 -47 c0 -8
-6 -11 -15 -8 -8 4 -15 9 -15 13 0 4 7 8 15 8 8 0 15 -6 15 -13z m2641 -24
c22 0 6 -17 -31 -33 -49 -21 -99 -24 -78 -4 26 23 73 47 86 42 8 -3 18 -5 23
-5z m-326 -30 c3 -6 -1 -7 -9 -4 -18 7 -21 14 -7 14 6 0 13 -4 16 -10z m150
-10 c-27 -12 -43 -12 -25 0 8 5 22 9 30 9 10 0 8 -3 -5 -9z m-2435 -39 c0 -11
-4 -23 -10 -26 -6 -4 -10 5 -10 19 0 14 5 26 10 26 6 0 10 -9 10 -19z m2555 9
c-3 -5 -10 -10 -16 -10 -5 0 -9 5 -9 10 0 6 7 10 16 10 8 0 12 -4 9 -10z
m-1969 -41 c11 -18 -13 -34 -31 -19 -8 7 -15 16 -15 21 0 13 38 11 46 -2z
m1844 -31 c0 -8 -54 -50 -88 -67 -18 -10 -27 -10 -40 1 -13 11 -15 11 -10 -3
4 -11 -3 -19 -23 -26 -16 -6 -27 -7 -24 -2 4 5 -1 6 -9 3 -9 -3 -16 -10 -16
-15 0 -4 -10 2 -23 14 -14 14 -19 25 -12 30 10 9 -65 2 -111 -9 -22 -6 -25 -4
-19 7 7 11 6 12 -6 2 -8 -6 -24 -10 -34 -8 -11 2 -24 4 -29 4 -6 1 -6 5 0 11
6 6 36 12 67 13 34 1 57 7 57 13 0 7 16 10 46 8 26 -3 43 0 40 5 -7 11 103 25
141 17 15 -3 33 -2 40 2 15 10 53 10 53 0z m-2380 -18 c0 -5 -4 -10 -10 -10
-5 0 -10 5 -10 10 0 6 5 10 10 10 6 0 10 -4 10 -10z m-30 -31 c0 -5 -7 -9 -15
-9 -9 0 -12 6 -9 15 6 15 24 11 24 -6z m2134 -41 c-3 -4 -11 -8 -19 -8 -8 0
-16 4 -19 8 -2 4 6 8 19 8 13 0 21 -4 19 -8z m-2181 -28 c-7 -25 -36 -23 -41
3 -3 12 3 17 21 17 20 0 24 -4 20 -20z m1107 -20 c0 -45 -11 -51 -34 -18 -14
20 -14 23 2 39 26 27 32 23 32 -21z m1120 30 c0 -13 -11 -13 -30 0 -12 8 -11
10 8 10 12 0 22 -4 22 -10z m-1170 -64 c0 -3 -4 -8 -10 -11 -5 -3 -10 -1 -10
4 0 6 5 11 10 11 6 0 10 -2 10 -4z m-1646 -36 c-6 -6 -140 -19 -300 -30 -692
-46 -951 -61 -984 -58 -34 3 -34 3 -13 16 16 8 189 22 545 42 288 17 539 31
558 33 88 9 204 7 194 -3z m1648 -195 c0 -5 -5 -11 -11 -13 -6 -2 -11 4 -11
13 0 9 5 15 11 13 6 -2 11 -8 11 -13z m50 -40 c10 -46 5 -65 -18 -65 -13 0
-15 6 -10 31 3 18 1 38 -5 45 -6 7 -8 18 -4 24 12 20 29 4 37 -35z m-110 -11
c-24 -17 -39 -14 -27 5 3 6 16 11 28 11 l21 0 -22 -16z m63 -94 c3 -5 1 -10
-4 -10 -6 0 -11 5 -11 10 0 6 2 10 4 10 3 0 8 -4 11 -10z m-875 -67 c0 -14 -4
-21 -10 -18 -5 3 -10 1 -10 -4 0 -6 5 -11 10 -11 6 0 10 -21 10 -46 0 -27 -4
-43 -10 -39 -5 3 -10 2 -10 -4 0 -5 4 -12 9 -15 8 -6 14 -86 5 -86 -2 0 -32
11 -66 24 -35 13 -92 33 -128 44 l-65 19 -3 61 -3 61 37 17 37 18 22 -28 c28
-35 55 -29 84 19 19 32 21 33 55 23 28 -9 36 -17 36 -35z m846 19 c11 -7 11
-17 -1 -64 -4 -17 -3 -28 3 -28 5 0 12 -11 14 -25 3 -14 1 -25 -4 -25 -5 0 -6
-4 -3 -10 3 -5 1 -10 -4 -10 -6 0 -11 -5 -11 -10 0 -6 8 -10 18 -8 12 2 17 -3
16 -18 0 -22 10 -25 34 -11 8 6 12 1 12 -17 0 -14 6 -28 13 -33 15 -10 -30
-20 -95 -22 -60 -1 -67 23 -10 35 22 4 30 9 20 11 -10 3 -19 11 -19 19 -1 8
-2 23 -3 34 -1 22 -26 52 -26 32 0 -7 -6 -12 -14 -12 -9 0 -12 7 -9 21 4 14
12 19 24 16 11 -3 19 -1 19 4 0 5 -9 9 -20 9 -11 0 -20 5 -20 11 0 6 9 9 19 6
13 -3 21 1 24 14 4 15 2 17 -13 9 -24 -13 -30 -13 -30 1 0 5 5 7 10 4 6 -3 10
-1 10 4 0 6 -4 11 -10 11 -20 0 -9 29 13 32 12 2 21 9 20 16 -3 13 6 15 23 4z
m649 -203 c5 -5 -6 -10 -28 -10 -20 -1 -43 -2 -49 -3 -7 -1 -14 7 -16 18 -3
16 1 17 40 11 23 -4 47 -11 53 -16z m-739 -36 c-10 -10 -19 5 -10 18 6 11 8
11 12 0 2 -7 1 -15 -2 -18z m18 -38 c3 -9 0 -15 -8 -15 -7 0 -13 7 -13 15 0 8
4 15 8 15 4 0 9 -7 13 -15z m99 -42 c-7 -2 -19 -2 -25 0 -7 3 -2 5 12 5 14 0
19 -2 13 -5z m600 -50 c-13 -2 -33 -2 -45 0 -13 2 -3 4 22 4 25 0 35 -2 23 -4z
m845 -23 c72 -10 -426 0 -528 11 -41 4 48 5 198 2 150 -3 298 -9 330 -13z"/>
<path d="M3180 8279 c45 -13 201 -41 220 -39 29 3 218 -1 239 -5 12 -2 21 0
21 4 0 12 -63 21 -143 21 -38 0 -76 4 -86 9 -9 5 -77 12 -151 15 -102 4 -126
3 -100 -5z"/>
<path d="M3690 8240 c0 -5 5 -10 11 -10 5 0 7 5 4 10 -3 6 -8 10 -11 10 -2 0
-4 -4 -4 -10z"/>
<path d="M3728 8233 c7 -3 16 -2 19 1 4 3 -2 6 -13 5 -11 0 -14 -3 -6 -6z"/>
<path d="M3880 8221 c0 -11 36 -21 78 -21 34 0 43 14 16 24 -24 9 -94 7 -94
-3z"/>
<path d="M3876 7425 c-9 -26 -7 -32 5 -12 6 10 9 21 6 23 -2 3 -7 -2 -11 -11z"/>
<path d="M5034 6736 c-16 -13 -17 -18 -6 -36 10 -17 11 -25 1 -36 -6 -8 -9
-17 -6 -20 10 -10 27 7 27 27 0 10 6 28 12 39 18 28 -1 45 -28 26z"/>
<path d="M5066 6595 c-3 -9 -6 -22 -5 -28 0 -7 5 -1 10 12 5 13 8 26 5 28 -2
2 -6 -3 -10 -12z"/>
<path d="M5525 6530 c3 -5 8 -10 11 -10 2 0 4 5 4 10 0 6 -5 10 -11 10 -5 0
-7 -4 -4 -10z"/>
<path d="M4982 6183 c-14 -28 -3 -48 14 -26 7 10 14 24 14 31 0 18 -18 15 -28
-5z"/>
<path d="M4910 6086 c0 -28 -24 -51 -44 -43 -9 4 -17 -2 -21 -14 -8 -25 1 -37
17 -21 7 7 21 12 33 12 11 0 26 9 33 20 15 25 32 18 32 -13 0 -17 2 -19 9 -8
12 18 3 41 -26 69 -30 28 -33 28 -33 -2z"/>
<path d="M4751 6086 c-7 -8 -28 -17 -47 -21 -26 -4 -41 -15 -56 -41 -11 -19
-25 -34 -30 -34 -7 0 -8 -23 -3 -64 4 -42 3 -66 -4 -71 -6 -3 -11 -32 -10 -63
0 -42 3 -51 9 -36 5 12 21 26 37 32 33 13 83 51 66 52 -6 0 -14 -4 -17 -9 -3
-5 -15 -7 -27 -4 -12 4 -16 8 -10 13 14 8 105 195 115 233 7 29 -4 36 -23 13z"/>
<path d="M4840 6085 c0 -8 5 -15 10 -15 6 0 10 7 10 15 0 8 -4 15 -10 15 -5 0
-10 -7 -10 -15z"/>
<path d="M4853 5978 c-18 -6 -33 -15 -33 -20 0 -5 10 -6 22 -3 17 6 20 4 14
-10 -10 -27 5 -39 18 -13 19 37 26 58 18 57 -4 -1 -22 -6 -39 -11z"/>
<path d="M4805 5880 c3 -5 8 -10 11 -10 2 0 4 5 4 10 0 6 -5 10 -11 10 -5 0
-7 -4 -4 -10z"/>
<path d="M4580 5649 c0 -5 5 -7 10 -4 6 3 10 8 10 11 0 2 -4 4 -10 4 -5 0 -10
-5 -10 -11z"/>
<path d="M4591 5490 c-13 -37 5 -41 19 -4 12 31 12 34 1 34 -5 0 -14 -13 -20
-30z"/>
<path d="M2016 7782 c-10 -16 14 -26 58 -23 43 2 54 7 43 17 -12 12 -95 16
-101 6z"/>
<path d="M2168 7775 c-4 -4 -3 -17 2 -29 12 -33 9 -186 -5 -227 -14 -39 -17
-172 -4 -228 4 -20 10 -57 12 -83 3 -25 8 -51 12 -57 10 -17 40 -13 66 8 22
17 22 23 21 157 -1 76 -6 153 -11 170 -9 32 4 122 32 219 9 29 11 54 6 59 -11
12 -121 21 -131 11z"/>
<path d="M2068 7056 c-3 -14 -2 -26 3 -26 10 0 6 -20 -10 -48 -18 -33 -11 -96
12 -100 11 -2 17 3 17 17 0 11 9 22 19 26 34 10 38 55 6 55 -10 0 -13 9 -11
28 3 16 -3 38 -14 51 l-17 24 -5 -27z"/>
<path d="M2167 6979 c-33 -38 -34 -50 -5 -68 19 -12 23 -11 34 4 13 17 17 95
5 95 -4 0 -19 -14 -34 -31z"/>
<path d="M2315 6970 c-8 -16 -26 -40 -40 -54 -30 -30 -32 -46 -4 -46 14 0 24
11 35 38 8 20 21 49 30 65 9 15 11 27 5 27 -6 0 -17 -13 -26 -30z"/>
<path d="M2073 6777 c11 -29 19 -130 10 -124 -5 3 -15 2 -22 -2 -10 -6 -9 -11
3 -22 38 -35 44 -37 54 -27 7 7 17 5 33 -6 13 -9 28 -16 35 -16 12 0 34 42 34
68 0 9 11 42 24 73 l23 57 -36 6 c-20 3 -65 6 -100 6 -49 0 -62 -3 -58 -13z"/>
<path d="M2033 6573 c-18 -6 -17 -63 0 -63 16 0 47 31 47 47 0 12 -29 22 -47
16z"/>
<path d="M2197 6553 c-12 -12 -7 -78 8 -97 18 -24 22 -21 33 32 8 34 7 46 -5
57 -16 16 -26 19 -36 8z"/>
<path d="M2080 6243 c0 -10 6 -13 16 -9 9 3 36 6 61 6 62 0 52 6 -19 13 -47 4
-58 2 -58 -10z"/>
<path d="M1593 5795 c4 -5 0 -19 -8 -32 l-15 -23 102 1 103 2 -66 11 c-36 6
-72 16 -80 22 -20 15 -45 29 -36 19z"/>
<path d="M1790 5739 c0 -5 5 -7 10 -4 6 3 10 8 10 11 0 2 -4 4 -10 4 -5 0 -10
-5 -10 -11z"/>
<path d="M2040 5740 c8 -5 62 -9 120 -8 96 1 100 2 45 8 -92 12 -183 12 -165
0z"/>
<path d="M5515 7519 c-11 -17 1 -21 15 -4 8 9 8 15 2 15 -6 0 -14 -5 -17 -11z"/>
<path d="M5487 7463 c-6 -34 -2 -41 11 -16 6 11 7 25 3 32 -6 9 -10 4 -14 -16z"/>
<path d="M5455 7370 c-3 -5 1 -10 9 -10 9 0 16 5 16 10 0 6 -4 10 -9 10 -6 0
-13 -4 -16 -10z"/>
<path d="M5580 7330 c0 -5 7 -10 15 -10 8 0 15 5 15 10 0 6 -7 10 -15 10 -8 0
-15 -4 -15 -10z"/>
<path d="M3076 7533 c-3 -3 -6 -17 -6 -31 0 -21 2 -22 15 -12 8 7 15 18 15 26
0 15 -15 26 -24 17z"/>
<path d="M3184 7309 c7 -22 17 -43 22 -47 6 -4 25 -31 44 -59 18 -29 37 -53
42 -53 4 0 8 -9 8 -19 0 -23 -56 -35 -109 -23 -41 9 -54 32 -19 33 23 1 23 1
-2 8 -19 5 -26 16 -31 44 -3 20 -3 37 1 37 4 0 10 9 13 20 5 21 -25 46 -42 36
-4 -3 -17 4 -29 14 -12 11 -24 20 -27 20 -3 0 -4 -55 -3 -122 l3 -123 76 -3
77 -3 6 -33 c4 -19 13 -39 21 -46 8 -7 15 -23 15 -36 0 -12 11 -36 24 -51 22
-25 27 -26 45 -15 19 11 23 9 39 -18 11 -16 22 -27 25 -23 4 3 7 -1 7 -10 0
-19 41 -33 66 -23 15 6 16 31 11 252 -3 136 -9 249 -12 252 -3 3 -5 -2 -5 -12
0 -9 -7 -19 -16 -23 -14 -5 -15 -8 -3 -17 8 -6 15 -32 17 -58 l3 -48 -33 0
c-22 0 -37 7 -46 20 -7 11 -19 20 -28 20 -8 0 -12 4 -9 10 3 5 1 18 -5 29 -7
13 -7 22 0 26 19 11 0 25 -35 25 -49 0 -65 9 -66 39 0 14 -3 21 -5 14 -4 -8
-13 -9 -28 -3 -23 8 -23 8 -12 -31z m126 -315 c0 -2 -7 -4 -15 -4 -8 0 -15 4
-15 10 0 5 7 7 15 4 8 -4 15 -8 15 -10z"/>
<path d="M3544 6613 c4 -68 11 -115 21 -129 8 -13 15 -30 15 -38 0 -22 32 -36
53 -25 15 9 14 12 -10 33 -25 22 -26 24 -10 40 9 10 17 14 17 9 0 -5 13 -16
29 -26 28 -16 29 -16 34 2 6 25 47 17 54 -11 3 -10 10 -18 17 -19 6 0 21 -2
34 -3 25 -3 30 12 7 20 -24 10 -17 27 8 21 22 -6 22 -6 2 9 -19 14 -17 15 19
8 35 -6 38 -5 32 13 -7 23 2 55 14 48 12 -8 21 11 14 29 -3 9 -11 13 -18 10
-6 -3 -1 3 12 14 13 13 22 32 22 50 l0 30 -72 6 c-40 3 -124 8 -187 10 l-114
6 7 -107z"/>
<path d="M3673 6436 c3 -7 0 -19 -6 -25 -17 -17 11 -39 53 -41 81 -4 92 7 34
35 -19 9 -38 23 -41 31 -3 8 -14 14 -25 14 -13 0 -18 -5 -15 -14z"/>
<path d="M3181 6265 c1 -21 38 -90 38 -71 1 15 6 17 29 11 15 -4 90 -9 167
-11 77 -2 151 -5 164 -7 13 -1 26 4 28 11 4 9 -20 13 -94 14 -54 1 -120 3
-148 4 -27 1 -73 2 -102 3 -46 1 -54 4 -67 29 -8 15 -15 23 -15 17z"/>
<path d="M3705 6194 c8 -6 37 -14 63 -18 26 -4 55 -13 65 -20 16 -12 23 -12
48 2 16 10 28 24 26 32 -2 12 -22 15 -110 15 -82 0 -104 -3 -92 -11z"/>
<path d="M3628 6193 c7 -3 16 -2 19 1 4 3 -2 6 -13 5 -11 0 -14 -3 -6 -6z"/>
<path d="M3291 5985 c0 -5 11 -32 25 -60 13 -27 21 -39 18 -25 -7 29 -43 100
-43 85z"/>
<path d="M3965 5710 l-40 -6 37 -8 c20 -4 44 -6 54 -4 37 7 -11 24 -51 18z"/>
<path d="M3943 5602 c-83 -3 -97 -18 -50 -52 l31 -23 55 29 c30 16 54 33 53
39 -1 12 0 12 -89 7z"/>
<path d="M4037 5543 c-12 -11 -8 -23 8 -23 8 0 15 7 15 15 0 16 -12 20 -23 8z"/>
<path d="M3054 4672 c3 -301 8 -562 12 -580 8 -41 31 -51 91 -42 24 4 55 5 69
2 13 -2 24 0 24 5 0 13 40 15 85 2 30 -8 48 -7 70 2 17 7 38 11 48 10 16 -2
17 29 17 562 l-1 564 -42 1 c-57 1 -222 10 -222 12 0 0 -35 3 -78 5 l-79 5 6
-548z m323 -154 c-3 -8 -6 -5 -6 6 -1 11 2 17 5 13 3 -3 4 -12 1 -19z m-77
-337 c0 -16 -41 -24 -54 -11 -6 7 -6 10 -1 7 6 -3 17 -2 25 4 19 11 30 11 30
0z"/>
<path d="M3550 5200 c0 -5 7 -10 15 -10 8 0 15 5 15 10 0 6 -7 10 -15 10 -8 0
-15 -4 -15 -10z"/>
<path d="M3228 4033 c7 -3 16 -2 19 1 4 3 -2 6 -13 5 -11 0 -14 -3 -6 -6z"/>
<path d="M3268 4033 c7 -3 16 -2 19 1 4 3 -2 6 -13 5 -11 0 -14 -3 -6 -6z"/>
<path d="M3076 3987 c-18 -13 -24 -57 -12 -95 7 -21 12 -22 109 -22 56 0 145
3 199 6 l96 7 4 29 c3 17 3 40 0 53 l-4 23 -170 -3 c-94 -2 -179 0 -188 5 -11
6 -23 5 -34 -3z"/>
<path d="M4002 3815 c-36 -26 -34 -29 19 -39 l35 -6 -4 35 c-5 41 -6 41 -50
10z"/>
<path d="M4018 3703 c-19 -5 -24 -28 -9 -37 14 -9 41 4 41 19 0 17 -10 23 -32
18z"/>
<path d="M3925 3690 c-8 -13 4 -32 16 -25 12 8 12 35 0 35 -6 0 -13 -4 -16
-10z"/>
<path d="M3995 3442 c-3 -3 -5 -19 -5 -36 l1 -31 19 24 c11 13 20 29 20 35 0
12 -25 18 -35 8z"/>
<path d="M3980 3314 c0 -8 5 -12 10 -9 6 4 8 11 5 16 -9 14 -15 11 -15 -7z"/>
<path d="M3975 3220 c7 -12 55 -14 55 -2 0 4 -14 9 -31 10 -19 2 -28 -2 -24
-8z"/>
<path d="M1137 6272 c-17 -7 -17 -9 -4 -21 21 -17 72 -10 72 9 0 17 -39 23
-68 12z"/>
<path d="M1265 6150 c-4 -6 -2 -17 5 -25 8 -10 6 -17 -12 -29 -12 -9 -26 -16
-30 -16 -5 0 -26 -11 -48 -25 -39 -25 -53 -55 -26 -55 17 0 78 31 87 44 4 5
18 7 32 4 29 -6 32 -1 42 66 7 44 6 46 -18 46 -14 0 -29 -5 -32 -10z"/>
<path d="M1758 6352 c-24 -5 -23 -18 2 -25 11 -3 18 -1 14 4 -3 5 1 9 9 9 9 0
13 -10 11 -32 -3 -29 -2 -30 4 -8 7 21 15 25 55 28 73 5 60 27 -16 27 -34 0
-70 -1 -79 -3z"/>
<path d="M5373 6363 c9 -2 23 -2 30 0 6 3 -1 5 -18 5 -16 0 -22 -2 -12 -5z"/>
<path d="M2815 6180 c-3 -5 -1 -10 4 -10 6 0 11 5 11 10 0 6 -2 10 -4 10 -3 0
-8 -4 -11 -10z"/>
<path d="M5352 5328 c-15 -15 -16 -55 -1 -63 13 -9 17 -5 22 26 7 34 -5 53
-21 37z"/>
<path d="M5326 5168 c-13 -7 -15 -18 -10 -50 7 -40 39 -86 52 -74 3 4 8 33 10
65 4 51 2 59 -15 63 -11 3 -28 1 -37 -4z"/>
<path d="M5355 4930 c-13 -20 -11 -80 2 -80 9 0 13 14 13 45 0 45 -4 54 -15
35z"/>
<path d="M4984 4835 c-4 -8 -1 -22 5 -29 8 -10 9 -16 1 -21 -5 -3 -10 0 -10 7
-1 10 -4 9 -13 -2 -7 -8 -18 -15 -26 -15 -8 0 -16 -6 -19 -13 -2 -7 2 -10 12
-6 11 4 16 0 16 -12 0 -23 32 -94 42 -94 4 0 8 11 8 24 0 13 5 26 12 28 6 2
16 21 22 43 11 37 21 48 58 59 11 3 15 11 12 21 -3 8 -10 12 -15 9 -5 -3 -9 0
-9 5 0 6 -5 11 -11 11 -5 0 -8 -3 -6 -7 3 -5 0 -19 -5 -32 l-9 -25 -19 32
c-21 35 -37 41 -46 17z"/>
<path d="M5170 4820 c0 -5 4 -10 9 -10 6 0 13 5 16 10 3 6 -1 10 -9 10 -9 0
-16 -4 -16 -10z"/>
<path d="M5317 4753 c-8 -12 13 -206 24 -225 5 -10 5 -18 1 -18 -17 0 3 -75
21 -78 16 -3 17 10 17 150 0 107 -4 158 -12 166 -13 13 -44 16 -51 5z"/>
<path d="M5450 4389 c0 -23 -23 -32 -100 -38 -49 -5 -65 -10 -65 -21 0 -12 18
-15 100 -15 93 0 100 1 102 20 2 11 -6 31 -17 45 -15 19 -20 21 -20 9z"/>
<path d="M4375 3260 c-3 -5 -1 -10 4 -10 6 0 11 5 11 10 0 6 -2 10 -4 10 -3 0
-8 -4 -11 -10z"/>
<path d="M4808 3143 c6 -2 18 -2 25 0 6 3 1 5 -13 5 -14 0 -19 -2 -12 -5z"/>
<path d="M1395 4640 c3 -5 8 -10 11 -10 2 0 4 5 4 10 0 6 -5 10 -11 10 -5 0
-7 -4 -4 -10z"/>
<path d="M1102 4218 c-19 -19 -15 -58 6 -58 25 0 56 35 49 55 -8 18 -38 20
-55 3z"/>
<path d="M1581 3501 c-8 -5 -45 -8 -82 -7 -78 3 -103 -5 -71 -25 14 -9 20 -20
17 -34 -3 -11 -1 -26 4 -34 8 -12 13 -12 36 3 25 16 25 19 9 30 -24 18 -8 26
69 34 45 5 62 11 62 22 0 18 -24 24 -44 11z"/>
<path d="M1590 3438 c-15 -6 -20 -12 -12 -15 6 -3 12 -12 12 -20 0 -9 -6 -13
-15 -9 -26 10 -16 -2 15 -18 l30 -14 0 44 c0 24 -1 44 -2 43 -2 0 -14 -5 -28
-11z"/>
<path d="M2285 3230 c-3 -5 -2 -10 4 -10 5 0 13 5 16 10 3 6 2 10 -4 10 -5 0
-13 -4 -16 -10z"/>
<path d="M1390 3210 c0 -5 5 -10 10 -10 6 0 10 5 10 10 0 6 -4 10 -10 10 -5 0
-10 -4 -10 -10z"/>
<path d="M1855 3179 c-4 -6 -5 -13 -2 -16 7 -7 27 6 27 18 0 12 -17 12 -25 -2z"/>
<path d="M1435 3130 c-8 -38 0 -49 21 -28 15 15 15 18 1 38 -15 22 -15 22 -22
-10z"/>
<path d="M1420 3060 c-9 -16 -9 -25 -1 -33 18 -18 12 -52 -13 -77 l-25 -23 -7
27 c-4 18 -12 26 -23 24 -22 -4 -25 -32 -6 -52 15 -14 15 -16 1 -16 -18 0 -20
-18 -6 -40 9 -15 11 -13 14 13 1 6 12 11 24 10 14 -2 22 3 22 12 0 11 11 15
38 16 20 0 32 3 26 5 -6 3 -9 16 -6 30 3 16 -3 36 -16 53 -15 20 -17 32 -10
45 5 10 8 20 5 23 -3 2 -11 -5 -17 -17z"/>
<path d="M1500 2942 c0 -26 14 -42 37 -42 13 0 33 -5 44 -11 17 -9 18 -13 8
-26 -11 -12 -10 -17 6 -26 11 -6 32 -12 48 -13 24 -1 27 2 27 27 0 16 -4 29
-10 29 -5 0 -27 15 -47 33 -37 33 -113 52 -113 29z"/>
<path d="M1160 2801 c0 -6 5 -13 10 -16 6 -3 10 1 10 9 0 9 -4 16 -10 16 -5 0
-10 -4 -10 -9z"/>
<path d="M1341 2794 c0 -11 3 -14 6 -6 3 7 2 16 -1 19 -3 4 -6 -2 -5 -13z"/>
<path d="M1450 2795 c-15 -18 -6 -45 14 -45 20 0 26 12 19 38 -6 26 -16 28
-33 7z"/>
<path d="M1107 2783 c-4 -3 -7 -11 -7 -17 0 -6 5 -5 12 2 6 6 9 14 7 17 -3 3
-9 2 -12 -2z"/>
<path d="M1572 2769 c2 -6 8 -10 13 -10 5 0 11 4 13 10 2 6 -4 11 -13 11 -9 0
-15 -5 -13 -11z"/>
<path d="M1730 2720 c0 -5 5 -10 10 -10 6 0 10 5 10 10 0 6 -4 10 -10 10 -5 0
-10 -4 -10 -10z"/>
<path d="M1336 2684 c-3 -9 -6 -25 -6 -36 0 -16 3 -18 14 -9 20 17 26 49 11
55 -7 2 -16 -2 -19 -10z"/>
<path d="M1217 2626 c-4 -11 -2 -28 7 -41 8 -13 11 -27 6 -35 -10 -16 -2 -40
21 -62 17 -17 18 -16 24 12 4 16 4 34 1 39 -3 5 2 12 12 16 11 4 22 -1 31 -14
19 -30 27 -26 28 13 1 27 -3 33 -19 32 -17 -1 -33 15 -44 42 -1 1 -13 -2 -27
-7 -21 -8 -26 -7 -29 7 -3 15 -4 15 -11 -2z"/>
<path d="M1450 2560 c0 -5 5 -10 10 -10 6 0 10 5 10 10 0 6 -4 10 -10 10 -5 0
-10 -4 -10 -10z"/>
<path d="M1480 2510 c0 -5 5 -10 11 -10 5 0 7 5 4 10 -3 6 -8 10 -11 10 -2 0
-4 -4 -4 -10z"/>
<path d="M1325 2481 c-3 -6 -4 -15 -1 -20 8 -13 48 -1 43 13 -5 15 -34 20 -42
7z"/>
<path d="M1495 2480 c3 -5 8 -10 11 -10 2 0 4 5 4 10 0 6 -5 10 -11 10 -5 0
-7 -4 -4 -10z"/>
<path d="M4015 2429 c-4 -6 -4 -13 -1 -16 8 -8 36 5 36 17 0 13 -27 13 -35 -1z"/>
<path d="M3070 1488 c0 -5 9 -8 19 -8 11 0 22 3 24 8 3 4 -6 7 -19 7 -13 0
-24 -3 -24 -7z"/>
<path d="M4040 1441 c0 -5 5 -13 10 -16 6 -3 10 -2 10 4 0 5 -4 13 -10 16 -5
3 -10 2 -10 -4z"/>
</g>
</svg>
