<svg id="visual" viewBox="0 0 900 600" width="900" height="600" xmlns="http://www.w3.org/2000/svg" xmlns:xlink="http://www.w3.org/1999/xlink" version="1.1"><rect x="0" y="0" width="900" height="600" fill="#FFFFFF"></rect><path d="M0 196L30 203.2C60 210.3 120 224.7 180 232.2C240 239.7 300 240.3 360 246.7C420 253 480 265 540 275.3C600 285.7 660 294.3 720 285.2C780 276 840 249 870 235.5L900 222L900 0L870 0C840 0 780 0 720 0C660 0 600 0 540 0C480 0 420 0 360 0C300 0 240 0 180 0C120 0 60 0 30 0L0 0Z" fill="#131A25" stroke-linecap="round" stroke-linejoin="miter"></path></svg>